<svg xmlns="http://www.w3.org/2000/svg" width="101.286" height="125.149" viewBox="0 0 101.286 125.149"><g transform="translate(-6.9 -0.986)"><path d="M99.913,83.737a7.869,7.869,0,0,0-1.073.109l-7.588-7.588a2.018,2.018,0,0,0-1.426-.591H59.561V51.455H89.825a2.017,2.017,0,0,0,1.426-.591l7.589-7.589a7.869,7.869,0,0,0,1.073.109,8.171,8.171,0,1,0-5.056-1.832L88.99,47.42H68.466l6.644-6.644a2.018,2.018,0,0,0,.591-1.426V29.261a2.071,2.071,0,0,0-.054-.27,8.071,8.071,0,1,0-3.926,0,2.071,2.071,0,0,0-.054.27v9.253L62.761,47.42H54.516l-11.1-14.8V17.155a2.07,2.07,0,0,0-.054-.27,8.071,8.071,0,1,0-3.926,0,2.071,2.071,0,0,0-.054.27V33.3a2.018,2.018,0,0,0,.4,1.211L49.472,47.42H26.1l-5.867-5.867a8.024,8.024,0,1,0-5.056,1.832,7.87,7.87,0,0,0,1.073-.109l7.588,7.588a2.018,2.018,0,0,0,1.426.591H55.525V75.667H37.367V69.614a2.018,2.018,0,1,0-4.035,0v6.053H25.261a2.017,2.017,0,0,0-1.426.591l-7.589,7.589a7.868,7.868,0,0,0-1.073-.109,8.171,8.171,0,1,0,5.056,1.832L26.1,79.7H46.619l-6.644,6.644a2.018,2.018,0,0,0-.591,1.426V97.861a2.07,2.07,0,0,0,.054.27,8.071,8.071,0,1,0,3.926,0,2.069,2.069,0,0,0,.054-.27V88.608L52.325,79.7h8.244l11.1,14.8v15.469a2.071,2.071,0,0,0,.054.27,8.071,8.071,0,1,0,3.926,0,2.072,2.072,0,0,0,.054-.27V93.825a2.018,2.018,0,0,0-.4-1.211L65.613,79.7H88.99l5.867,5.867a8.024,8.024,0,1,0,5.056-1.832Zm0-52.459a4.035,4.035,0,1,1-4.035,4.035A4.035,4.035,0,0,1,99.913,31.279ZM69.649,21.19a4.035,4.035,0,1,1,4.035,4.035A4.035,4.035,0,0,1,69.649,21.19ZM37.367,9.085A4.035,4.035,0,1,1,41.4,13.12a4.035,4.035,0,0,1-4.035-4.035ZM11.137,35.314a4.035,4.035,0,1,1,4.035,4.035A4.035,4.035,0,0,1,11.137,35.314Zm4.035,60.529a4.035,4.035,0,1,1,4.035-4.035A4.035,4.035,0,0,1,15.173,95.843Zm30.265,10.088A4.035,4.035,0,1,1,41.4,101.9,4.035,4.035,0,0,1,45.437,105.931Zm32.282,12.106A4.035,4.035,0,1,1,73.684,114,4.035,4.035,0,0,1,77.719,118.037ZM99.913,95.843a4.035,4.035,0,1,1,4.035-4.035A4.035,4.035,0,0,1,99.913,95.843Z" transform="translate(0 0)"/><path d="M22.018,36.053a2.018,2.018,0,0,0,2.018-2.018V32.018a2.018,2.018,0,0,0-4.035,0v2.018A2.018,2.018,0,0,0,22.018,36.053Z" transform="translate(13.331 29.526)"/><path d="M12.018,17.071a2.018,2.018,0,0,0,2.018-2.018V11.018a2.018,2.018,0,0,0-4.035,0v4.035A2.018,2.018,0,0,0,12.018,17.071Z" transform="translate(3.155 8.155)"/><path d="M55.018,51A2.018,2.018,0,0,0,53,53.018v2.018a2.018,2.018,0,0,0,4.035,0V53.018A2.018,2.018,0,0,0,55.018,51Z" transform="translate(46.913 50.896)"/></g></svg>