<svg xmlns="http://www.w3.org/2000/svg" width="130.687" height="125.149" viewBox="0 0 130.687 125.149"><g transform="translate(0 -9.846)"><g transform="translate(0 104.538)"><path d="M15.228,346.585a15.228,15.228,0,0,0,0,30.457,15.228,15.228,0,0,0,0-30.457Zm0,24.919a9.691,9.691,0,0,1,0-19.381,9.691,9.691,0,1,1,0,19.381Z" transform="translate(0 -346.585)"/></g><g transform="translate(29.903 54.146)"><g transform="translate(0 0)"><path d="M117.967,167.384A11.629,11.629,0,1,0,129.6,179.013,11.7,11.7,0,0,0,117.967,167.384Zm0,17.72a6.091,6.091,0,1,1,6.091-6.091A6.145,6.145,0,0,1,117.967,185.1Z" transform="translate(-106.338 -167.384)"/></g></g><g transform="translate(60.359 98.447)"><path d="M226.275,324.923A11.629,11.629,0,1,0,237.9,336.552,11.7,11.7,0,0,0,226.275,324.923Zm0,17.72a6.091,6.091,0,1,1,6.091-6.091A6.145,6.145,0,0,1,226.275,342.643Z" transform="translate(-214.646 -324.923)"/></g><g transform="translate(74.203 45.84)"><path d="M275.506,137.846a11.629,11.629,0,1,0,11.629,11.629A11.7,11.7,0,0,0,275.506,137.846Zm0,17.72a6.091,6.091,0,1,1,6.091-6.091A6.145,6.145,0,0,1,275.506,155.566Z" transform="translate(-263.877 -137.846)"/></g><g transform="translate(107.429 9.846)"><path d="M393.66,9.846a11.629,11.629,0,1,0,11.629,11.629A11.7,11.7,0,0,0,393.66,9.846Zm0,17.72a6.091,6.091,0,1,1,6.091-6.091A6.145,6.145,0,0,1,393.66,27.566Z" transform="translate(-382.031 -9.846)"/></g><g transform="translate(16.798 72.032)"><g transform="translate(0 0)"><rect width="39.041" height="5.538" transform="matrix(0.453, -0.891, 0.891, 0.453, 0, 34.805)"/></g></g><g transform="translate(45.396 71.458)"><g transform="translate(0 0)"><rect width="5.537" height="35.44" transform="matrix(0.791, -0.612, 0.612, 0.791, 0, 3.39)"/></g></g><g transform="translate(72.182 65.729)"><g transform="translate(0 0)"><rect width="34.885" height="5.537" transform="matrix(0.237, -0.971, 0.971, 0.237, 0, 33.89)"/></g></g><g transform="translate(91.072 26.384)"><g transform="translate(0 0)"><rect width="29.348" height="5.537" transform="translate(0 20.922) rotate(-45.474)"/></g></g></g></svg>