<svg xmlns="http://www.w3.org/2000/svg" width="100.714" height="100.714" viewBox="0 0 100.714 100.714"><defs><style>.a{fill:#020202;}</style></defs><path class="a" d="M183.934,1.967A1.967,1.967,0,1,1,181.967,0,1.967,1.967,0,0,1,183.934,1.967Zm0,0" transform="translate(-144.593)"/><path class="a" d="M37.473,79.255a37.126,37.126,0,0,0,20.273-5.973L89.01,104.545a1.967,1.967,0,0,0,2.782,0l8.346-8.346a1.966,1.966,0,0,0,0-2.782L68.874,62.154A37.124,37.124,0,0,0,74.847,41.88a37.505,37.505,0,0,0-1.274-9.712l7.117-7.117a7.878,7.878,0,1,0-2.782-2.782L72.181,28A37.64,37.64,0,0,0,46.644,5.548a1.967,1.967,0,0,0-.967,3.813A33.683,33.683,0,0,1,69.124,31.054l-9.953,9.953a7.86,7.86,0,0,0-7.992,0l-6.931-6.931a7.868,7.868,0,1,0-13.55,0l-6.934,6.934a7.879,7.879,0,1,0,2.782,2.783l6.935-6.935a7.844,7.844,0,0,0,7.986,0L48.4,43.784a7.871,7.871,0,1,0,13.556.005l8.342-8.342A33.488,33.488,0,1,1,29.087,9.407,1.967,1.967,0,0,0,28.1,5.6a37.418,37.418,0,0,0,9.372,73.657Zm47.21-64.913a3.934,3.934,0,1,1-3.934,3.934A3.939,3.939,0,0,1,84.682,14.341ZM19.769,51.716A3.934,3.934,0,1,1,23.7,47.782,3.939,3.939,0,0,1,19.769,51.716ZM33.539,30.078a3.934,3.934,0,1,1,3.934,3.934A3.939,3.939,0,0,1,33.539,30.078ZM55.176,51.716a3.934,3.934,0,1,1,3.934-3.934A3.939,3.939,0,0,1,55.176,51.716ZM90.4,100.373,68.539,78.511,74.1,72.947,95.964,94.808ZM66.536,65.379l4.786,4.785-5.565,5.565-4.786-4.786A37.463,37.463,0,0,0,66.536,65.379Zm0,0" transform="translate(0 -4.408)"/></svg>