<svg xmlns="http://www.w3.org/2000/svg" width="148.148" height="148.148" viewBox="0 0 148.148 148.148"><defs><style>.a{fill:#497bfa;}</style></defs><g transform="translate(-1 -1)"><path d="M35,78.011H78.011V35H35Zm4.779-38.232H73.232V73.232H39.779Z" transform="translate(47.242 47.242)"/><path d="M130.032,72.684V58.347H115.695V72.684h-4.779V58.347h-9a18.974,18.974,0,0,0-2.351-26.284h18.516a2.393,2.393,0,0,1,2.389,2.389v5.219a7.168,7.168,0,1,0,4.779,0V34.453a7.177,7.177,0,0,0-7.168-7.168H92.527a16.584,16.584,0,0,0-3.4-4.779H137.2a2.393,2.393,0,0,1,2.389,2.389v5.219a7.169,7.169,0,1,0,4.779,0V24.895a7.177,7.177,0,0,0-7.168-7.168H77.463v.033c-.182,0-.356-.031-.54-.024a21.5,21.5,0,0,0-40.5-4.21A16.7,16.7,0,0,0,15.461,27.879a19.083,19.083,0,0,0-4.9,35.051v55.154a7.177,7.177,0,0,0,7.168,7.168H30.113a7.168,7.168,0,1,0,0-4.779H17.726a2.393,2.393,0,0,1-2.389-2.389v-53.2a19,19,0,0,0,4.779.628V98.969a7.177,7.177,0,0,0,7.168,7.168h7.608a7.168,7.168,0,1,0,0-4.779H27.284a2.393,2.393,0,0,1-2.389-2.389V65.516h4.779V79.853a7.177,7.177,0,0,0,7.168,7.168h2.829a7.169,7.169,0,1,0,0-4.779H36.842a2.393,2.393,0,0,1-2.389-2.389V65.516H77.463v7.168a4.784,4.784,0,0,0-4.779,4.779H58.347V91.8H72.684v4.779H58.347v14.337H72.684v4.779H58.347v14.337H72.684a4.784,4.784,0,0,0,4.779,4.779v14.337H91.8V134.811h4.779v14.337h14.337V134.811h4.779v14.337h14.337V134.811a4.784,4.784,0,0,0,4.779-4.779h14.337V115.695H134.811v-4.779h14.337V96.579H134.811V91.8h14.337V77.463H134.811A4.784,4.784,0,0,0,130.032,72.684ZM122.863,48.79a2.389,2.389,0,1,1,2.389-2.389A2.393,2.393,0,0,1,122.863,48.79Zm19.116-9.558a2.389,2.389,0,1,1,2.389-2.389A2.393,2.393,0,0,1,141.979,39.232ZM36.842,120.474a2.389,2.389,0,1,1-2.389,2.389A2.393,2.393,0,0,1,36.842,120.474Zm4.779-19.116a2.389,2.389,0,1,1-2.389,2.389A2.393,2.393,0,0,1,41.621,101.358ZM46.4,82.242a2.389,2.389,0,1,1-2.389,2.389A2.393,2.393,0,0,1,46.4,82.242Zm16.726,4.779V82.242h9.558v4.779Zm0,19.116v-4.779h9.558v4.779Zm0,19.116v-4.779h9.558v4.779Zm57.347-62.126h4.779v9.558h-4.779Zm-14.337,9.558h-4.779V63.126h4.779Zm-9.558-9.754v9.754H91.8v-7.8A19.026,19.026,0,0,0,96.579,62.931ZM5.779,46.4A14.388,14.388,0,0,1,18.073,32.228l2.043-.483V29.674A11.961,11.961,0,0,1,32.063,17.726a11.829,11.829,0,0,1,4.781,1l2.409,1.054.822-2.5A16.716,16.716,0,0,1,72.57,20.618l.284,2.533,2.509-.447a11.867,11.867,0,0,1,13.515,8.215l.4,1.278,1.3.33a14.327,14.327,0,0,1-3.551,28.21H20.116A14.351,14.351,0,0,1,5.779,46.4ZM82.242,65.516h4.779v7.168H82.242Zm4.779,78.853H82.242v-9.558s3.584-2.389,4.779,0S87.021,144.369,87.021,144.369Zm19.116,0h-4.779v-9.558h4.779Zm19.116,0h-4.779v-9.558h4.779Zm-47.79-14.337V77.463h52.569l0,52.569Zm66.905-9.558v4.779h-9.558v-4.779Zm0-19.116v4.779h-9.558v-4.779Zm0-19.116v4.779h-9.558V82.242Z" transform="translate(0 0)"/><path class="a" d="M20.2,32.505h9.41l2.535,10.139,4.636-1.159L29.161,11H20.65L13.03,41.483l4.636,1.159Zm5.228-16.726,2.987,11.947H21.4l2.987-11.947Z" transform="translate(16.715 13.895)"/><path class="a" d="M39.337,37.284H34.558V15.779h4.779V11H25v4.779h4.779V37.284H25v4.779H39.337Z" transform="translate(33.347 13.895)"/></g></svg>