<svg xmlns="http://www.w3.org/2000/svg" width="170" height="163" viewBox="0 0 170 163"><defs><style>.a{opacity:0.387;}.b,.c{fill:#fff;}.c{font-size:26px;font-family:Avenir-Medium, Avenir;font-weight:500;}</style></defs><g transform="translate(-556 -3620)"><g class="a" transform="translate(584 3567)"><g transform="translate(0 53)"><g transform="translate(0 0)"><path class="b" d="M109.64,85.763l-2.485-2.631L98.435,59.626A10.228,10.228,0,0,0,88.91,53H26.624A10.193,10.193,0,0,0,17.1,59.626L8.5,82.84,4.921,86.153A14,14,0,0,0,0,96.8v34.249a10.183,10.183,0,0,0,10.182,10.133h6.431a10.183,10.183,0,0,0,10.182-10.133v-4.969h60.41v4.969a10.183,10.183,0,0,0,10.182,10.133h6.431A10.183,10.183,0,0,0,114,131.046V95.9A14.125,14.125,0,0,0,109.64,85.763ZM21.679,61.282a5.268,5.268,0,0,1,4.945-3.41h62.31a5.3,5.3,0,0,1,4.945,3.41l7.6,20.462H95.8a16.708,16.708,0,0,0-33.055,0H14.079ZM90.835,81.744H67.669a11.832,11.832,0,0,1,23.165,0Zm-68.912,49.3a5.3,5.3,0,0,1-5.31,5.262H10.182a5.3,5.3,0,0,1-5.31-5.262v-6.382a9.893,9.893,0,0,0,5.31,1.413H21.923Zm87.205,0a5.3,5.3,0,0,1-5.31,5.262H97.387a5.313,5.313,0,0,1-5.31-5.262v-4.969h11.741a9.892,9.892,0,0,0,5.31-1.413Zm-5.31-9.841H10.182a5.255,5.255,0,0,1-5.31-5.213V96.8a9.145,9.145,0,0,1,3.24-6.967l.1-.1,3.313-3.118h92.247l2.338,2.509c.024.049.1.073.122.122A9.18,9.18,0,0,1,109.1,95.9v20.1h.024A5.271,5.271,0,0,1,103.818,121.205Z" transform="translate(0 -53)"/></g></g><g transform="translate(11.449 96.359)"><g transform="translate(0 0)"><path class="b" d="M67.705,231H49.436A2.443,2.443,0,0,0,47,233.436V246.1a2.443,2.443,0,0,0,2.436,2.436H67.705a2.443,2.443,0,0,0,2.436-2.436V233.436A2.443,2.443,0,0,0,67.705,231Zm-2.436,12.667h-13.4v-7.795h13.4Z" transform="translate(-47 -231)"/></g></g><g transform="translate(79.41 96.359)"><g transform="translate(0 0)"><path class="b" d="M346.705,231H328.436A2.443,2.443,0,0,0,326,233.436V246.1a2.443,2.443,0,0,0,2.436,2.436h18.269a2.443,2.443,0,0,0,2.436-2.436V233.436A2.443,2.443,0,0,0,346.705,231Zm-2.436,12.667h-13.4v-7.795h13.4Z" transform="translate(-326 -231)"/></g></g><g transform="translate(42.799 106.59)"><g transform="translate(0 0)"><path class="b" d="M201.667,273H178.136a2.436,2.436,0,0,0,0,4.872h23.531a2.436,2.436,0,1,0,0-4.872Z" transform="translate(-175.7 -273)"/></g></g><g transform="translate(42.799 99.038)"><g transform="translate(0 0)"><path class="b" d="M201.667,242H178.136a2.436,2.436,0,0,0,0,4.872h23.531a2.436,2.436,0,1,0,0-4.872Z" transform="translate(-175.7 -242)"/></g></g></g><text class="c" transform="translate(556 3741)"><tspan x="15.632" y="26">Automotive</tspan></text></g></svg>