<svg xmlns="http://www.w3.org/2000/svg" width="97.811" height="100.753" viewBox="0 0 97.811 100.753"><defs><style>.a{opacity:0.387;}.b{fill:#fff;}</style></defs><g class="a" transform="translate(-7.476)"><g transform="translate(7.476)"><path class="b" d="M105.286,58.643c0-.033,0-.066-.005-.1,0-.016,0-.032,0-.048s-.008-.056-.013-.084-.006-.042-.011-.063-.01-.041-.016-.061-.014-.056-.023-.083-.011-.029-.016-.044c-.012-.032-.023-.064-.037-.094l0-.011L93.824,32.921h8.3a2.621,2.621,0,0,0,2.618-2.618V26.829a2.621,2.621,0,0,0-2.618-2.618H88.767a9,9,0,0,1-6.625-2.873,16.21,16.21,0,0,0-11.819-4.994H61.112V13.107a7.409,7.409,0,1,0-9.462,0v3.238H42.44A16.211,16.211,0,0,0,30.62,21.339,9,9,0,0,1,24,24.212H10.638A2.621,2.621,0,0,0,8.02,26.829V30.3a2.621,2.621,0,0,0,2.618,2.618h8.27L7.6,58.057l0,.011c-.013.03-.024.06-.036.091-.006.016-.012.031-.017.046s-.015.053-.022.08-.012.042-.016.064-.007.04-.01.06-.01.058-.013.087,0,.03,0,.045c0,.034,0,.068-.005.1,0,0,0,.007,0,.011v1.43a13.2,13.2,0,0,0,13.18,13.18h1.128a13.2,13.2,0,0,0,13.18-13.18v-1.43s0-.008,0-.013c0-.032,0-.065,0-.1,0-.017,0-.033,0-.05s-.008-.055-.013-.082-.007-.043-.011-.064-.01-.04-.016-.06-.014-.056-.023-.083-.011-.029-.016-.044c-.011-.032-.023-.063-.037-.094l0-.011L23.5,32.921h1.042a16.209,16.209,0,0,0,11.818-4.994,9,9,0,0,1,6.625-2.873H51.65V83.088H36.66a4.454,4.454,0,0,0-4.449,4.449V90.13H29.67a4.531,4.531,0,0,0-4.526,4.526V99.3a1.456,1.456,0,0,0,1.456,1.456H86.162A1.456,1.456,0,0,0,87.618,99.3V94.656a4.531,4.531,0,0,0-4.526-4.526H80.551V87.538A4.455,4.455,0,0,0,76.1,83.088H61.112V40.993a1.456,1.456,0,1,0-2.912,0V83.088H54.563V25.054H58.2v6.727a1.456,1.456,0,0,0,2.912,0V25.054h9.239a7.821,7.821,0,0,1,5.6,2.409,17.648,17.648,0,0,0,12.819,5.458h.463l-11.3,25.137,0,.01c-.014.031-.026.064-.038.1,0,.014-.011.027-.015.041s-.016.056-.024.085-.011.039-.015.058-.007.043-.011.065-.009.055-.013.082,0,.032,0,.049c0,.033,0,.066,0,.1,0,0,0,.008,0,.012v1.43a13.2,13.2,0,0,0,13.18,13.18h1.128a13.2,13.2,0,0,0,13.18-13.18v-1.43S105.286,58.647,105.286,58.643Zm-48.9-55.73A4.5,4.5,0,0,1,58.795,11.2q-.082.053-.166.1l-.086.05q-.115.063-.234.12l-.084.038q-.094.043-.19.081l-.081.032c-.086.032-.172.061-.259.088l-.07.02q-.11.032-.22.057l-.074.017c-.093.02-.187.038-.281.052L57,11.863c-.082.011-.165.02-.248.027l-.078.006c-.1.006-.2.011-.294.011s-.2,0-.294-.011l-.078-.006c-.083-.007-.165-.016-.247-.027l-.047-.006c-.094-.014-.188-.032-.281-.052l-.075-.017q-.11-.026-.219-.057l-.071-.02q-.13-.04-.258-.088l-.084-.033q-.094-.037-.187-.079l-.087-.039q-.117-.056-.232-.119l-.09-.052q-.081-.047-.161-.1a4.5,4.5,0,0,1,2.411-8.29ZM58.2,14.593v1.752H54.563V14.593l.072.016q.165.04.333.073l.11.02q.169.03.341.053l.079.01a7.457,7.457,0,0,0,.885.055c.154,0,.308-.006.46-.016h0c.141-.009.282-.022.421-.039l.083-.011q.169-.022.336-.052l.113-.02c.112-.022.223-.046.332-.073ZM21.784,70.353H20.656A10.28,10.28,0,0,1,10.388,60.111H32.052A10.28,10.28,0,0,1,21.784,70.353ZM31.254,57.2H11.183L21.206,34.913ZM76.1,86a1.539,1.539,0,0,1,1.537,1.537V90.13h-30.4a1.456,1.456,0,1,0,0,2.912H83.092a1.615,1.615,0,0,1,1.613,1.613v3.185H28.056V94.656a1.615,1.615,0,0,1,1.613-1.613h8.265a1.456,1.456,0,0,0,0-2.912H35.123V87.538A1.539,1.539,0,0,1,36.66,86ZM88.767,30.008a14.759,14.759,0,0,1-10.721-4.565,10.749,10.749,0,0,0-7.695-3.3H42.988a11.883,11.883,0,0,0-8.749,3.793,13.287,13.287,0,0,1-9.695,4.074H10.933V27.124H24a11.883,11.883,0,0,0,8.749-3.793,13.289,13.289,0,0,1,9.7-4.074H70.323a13.288,13.288,0,0,1,9.7,4.075,11.884,11.884,0,0,0,8.749,3.792H101.83v2.884H88.767Zm2.761,4.9L101.576,57.2H81.506Zm.579,35.44H90.978A10.279,10.279,0,0,1,80.711,60.111h21.664A10.279,10.279,0,0,1,92.106,70.353Z" transform="translate(-7.476)"/></g></g></svg>