<svg xmlns="http://www.w3.org/2000/svg" width="100.859" height="100.859" viewBox="0 0 100.859 100.859"><defs><style>.a{fill:#497bfa;}</style></defs><g transform="translate(-1 -1)"><path class="a" d="M32.88,21.268a1.628,1.628,0,0,1-1.627-1.627H28a4.886,4.886,0,0,0,4.88,4.88v3.254h3.254V24.521h4.88v-4.88a4.886,4.886,0,0,0-4.88-4.88H32.88a1.628,1.628,0,0,1-1.627-1.627V11.507h4.88a1.628,1.628,0,0,1,1.627,1.627h3.254a4.886,4.886,0,0,0-4.88-4.88V5H32.88V8.254H28v4.88a4.886,4.886,0,0,0,4.88,4.88h3.254a1.628,1.628,0,0,1,1.627,1.627v1.627Z" transform="translate(16.923 2.507)"/><path class="a" d="M95.352,75.831H93.726V43.3h4.88V34.209L69.267,17.778a17.871,17.871,0,0,0-35.675,0L4.254,34.209V43.3h4.88V75.831H7.507a6.507,6.507,0,0,0,0,13.014,6.44,6.44,0,0,0,3.254-.9v13.919H92.1V87.941a6.44,6.44,0,0,0,3.254.9,6.507,6.507,0,0,0,0-13.014Zm-4.88,0H83.965V43.3h6.507ZM44.923,43.3V75.831H22.148V43.3Zm3.254,0h6.507V75.831H48.176Zm9.761,0H80.711V75.831H57.937Zm32.809-9.761H61.686a17.891,17.891,0,0,0,7.438-12.108ZM51.43,4.254A14.641,14.641,0,1,1,36.789,18.894,14.658,14.658,0,0,1,51.43,4.254ZM41.173,33.535H12.114L33.735,21.427A17.891,17.891,0,0,0,41.173,33.535ZM7.507,36.789H95.352v3.254H7.507Zm4.88,6.507h6.507V75.831H12.387Zm21.148,55.31H23.775V90.472a4.88,4.88,0,0,1,9.761,0Zm22.775,0H46.549V90.472a4.88,4.88,0,0,1,9.761,0Zm22.775,0H69.324V90.472a4.88,4.88,0,0,1,9.761,0ZM95.352,85.592A3.257,3.257,0,0,1,92.1,82.338H88.845V98.606H82.338V90.472a8.134,8.134,0,0,0-16.268,0v8.134H59.564V90.472a8.134,8.134,0,0,0-16.268,0v8.134H36.789V90.472a8.134,8.134,0,0,0-16.268,0v8.134H14.014V82.338H10.761a3.254,3.254,0,1,1-3.254-3.254H95.352a3.254,3.254,0,0,1,0,6.507Z" transform="translate(0 0)"/><path class="a" d="M38,29V55.028H54.268V29ZM51.014,51.775H41.254V32.254h9.761Z" transform="translate(23.19 17.549)"/><path class="a" d="M32.268,55.028V29H16V55.028ZM19.254,32.254h9.761V51.775H19.254Z" transform="translate(9.401 17.549)"/></g></svg>