<svg xmlns="http://www.w3.org/2000/svg" width="135.401" height="149.005" viewBox="0 0 135.401 149.005"><defs><style>.a{fill:#497bfa;}</style></defs><g transform="translate(0 0)"><path d="M144.168,65.5a35.435,35.435,0,0,0-4.457-13C140.5,39.59,137.939,29.868,132.1,23.6a21.5,21.5,0,0,0-12.571-6.663c-4.119-8.707-11.121-10.391-15.377-9.982C96.183-.471,88.812-.647,83.955.565A21.327,21.327,0,0,0,76.688,4,21.3,21.3,0,0,0,69.421.565C64.564-.649,57.193-.472,49.225,6.951c-4.26-.411-11.259,1.275-15.377,9.982A21.487,21.487,0,0,0,21.277,23.6c-5.841,6.272-8.4,15.995-7.612,28.907a35.452,35.452,0,0,0-4.457,13c-.877,7.032.462,16.949,11.458,25-1.274,7.522-.068,20.47,11.945,26.837-.5,2.736-.829,7.482,1.613,11.539,1.921,3.191,5.093,5.29,9.442,6.25,2.2,3.388,9.762,13.881,19.206,13.881.06,0,.121,0,.181,0,5.062-.073,9.637-3.065,13.635-8.907,4,5.841,8.574,8.835,13.635,8.907,9.513.139,17.178-10.47,19.387-13.879,4.348-.96,7.522-3.058,9.442-6.25,2.443-4.057,2.111-8.8,1.613-11.539,12.014-6.367,13.221-19.315,11.946-26.837C143.707,82.453,145.047,72.536,144.168,65.5ZM128.4,87.209a2.583,2.583,0,0,0-1.073,2.776c.176.7,4.125,17.249-10.58,23.55a2.582,2.582,0,0,0-1.433,3.191c.018.055,1.759,5.585-.592,9.487-1.274,2.118-3.644,3.479-7.038,4.045a2.585,2.585,0,0,0-1.806,1.244c-2.02,3.447-8.7,12.338-15.38,12.338h-.115c-4.019-.062-7.849-3.379-11.384-9.858a2.742,2.742,0,0,0-2.366-1.345,2.582,2.582,0,0,0-2.268,1.345c-3.533,6.479-7.364,9.8-11.384,9.858-6.69.107-13.464-8.871-15.5-12.338a2.588,2.588,0,0,0-1.806-1.244c-3.383-.565-5.747-1.919-7.025-4.024-2.38-3.924-.619-9.46-.6-9.508a2.584,2.584,0,0,0-1.433-3.191C22,107.265,25.873,90.682,26.044,89.984a2.584,2.584,0,0,0-1.073-2.776C5.7,74.362,17.92,55.383,18.447,54.586a2.589,2.589,0,0,0,.428-1.617c-.842-11.777,1.213-20.447,6.108-25.772a15.832,15.832,0,0,1,10.625-5.254,2.584,2.584,0,0,0,2.4-1.623c2.891-7.224,7.535-8.257,9.951-8.257a6.922,6.922,0,0,1,1.506.15,2.581,2.581,0,0,0,2.453-.68c5.256-5.254,10.658-7.272,16.058-6a15.961,15.961,0,0,1,6.84,3.591,2.584,2.584,0,0,0,1.826.757h.1a2.583,2.583,0,0,0,1.826-.757,15.931,15.931,0,0,1,6.645-3.545c5.463-1.365,10.932.636,16.253,5.958a2.627,2.627,0,0,0,2.428.686c.771-.177,7.66-1.451,11.481,8.1a2.606,2.606,0,0,0,2.381,1.623A15.827,15.827,0,0,1,128.393,27.2c4.894,5.325,6.948,14,6.108,25.772a2.59,2.59,0,0,0,.428,1.617,29.869,29.869,0,0,1,4.112,11.559C140.109,74.7,136.53,81.791,128.4,87.209Z" transform="translate(-8.988 -0.001)"/></g><g transform="translate(91.619 16.778)"><path d="M149.577,23.939a2.586,2.586,0,0,0-3.268-1.634c-16.063,5.355-16.248,18.778-16.248,19.346a2.574,2.574,0,0,0,2.565,2.574h.018a2.591,2.591,0,0,0,2.583-2.556c.007-.42.285-10.32,12.716-14.463A2.583,2.583,0,0,0,149.577,23.939Z" transform="translate(-130.061 -22.173)"/></g><g transform="translate(94.031 79.53)"><path d="M162.022,113.359a2.583,2.583,0,0,0-3.62-.488c-4.209,3.207-8.015,4.35-11.305,3.4-5.862-1.688-8.816-9.41-8.844-9.489a2.582,2.582,0,0,0-4.843,1.795c.154.416,3.859,10.216,12.226,12.649a13.582,13.582,0,0,0,3.814.544c3.851,0,7.9-1.6,12.084-4.792A2.584,2.584,0,0,0,162.022,113.359Z" transform="translate(-133.248 -105.099)"/></g><g transform="translate(74.724 89.188)"><path d="M112.144,118.618a2.582,2.582,0,0,0-3.652,3.652c8.387,8.387,6.647,16.49,6.558,16.873a2.582,2.582,0,0,0,1.883,3.116,2.626,2.626,0,0,0,.627.077,2.584,2.584,0,0,0,2.5-1.958C120.178,139.927,122.711,129.185,112.144,118.618Z" transform="translate(-107.735 -117.861)"/></g><g transform="translate(80.382 40.67)"><path d="M154.037,78.814a2.587,2.587,0,0,0-3.306-1.548c-.523.187-12.839,4.493-19.38-4.213a42.288,42.288,0,0,1-6.031-11.5c-1.44-3.816-2.8-7.422-7.314-7.794a2.582,2.582,0,1,0-.424,5.147c1.081.088,1.488.715,2.9,4.468a47.432,47.432,0,0,0,6.735,12.784c4.5,5.99,10.78,7.495,15.958,7.495a29.641,29.641,0,0,0,9.319-1.529A2.58,2.58,0,0,0,154.037,78.814Z" transform="translate(-115.212 -53.745)"/></g><g transform="translate(65.069 4.711)"><path d="M97.559,6.226a2.584,2.584,0,0,0-2.583,2.583V136.73a2.583,2.583,0,0,0,5.165,0V8.809A2.584,2.584,0,0,0,97.559,6.226Z" transform="translate(-94.976 -6.226)"/></g><g transform="translate(72.906 24.417)"><path d="M118.964,34.813a2.547,2.547,0,0,0-2.621-2.546,2.584,2.584,0,0,0-2.546,2.621c0,.161.143,16.266-7.91,26.479a2.583,2.583,0,1,0,4.055,3.2C119.12,52.93,118.974,35.548,118.964,34.813Z" transform="translate(-105.332 -32.267)"/></g><g transform="translate(74.723 106.082)"><path d="M124.8,140.187c-11.386,0-16.711,15.584-16.932,16.248a2.583,2.583,0,0,0,4.9,1.635c1.19-3.538,5.671-12.718,12.033-12.718a2.583,2.583,0,1,0,0-5.165Z" transform="translate(-107.733 -140.187)"/></g><g transform="translate(84.377 6.037)"><path d="M130.812,8.49a2.582,2.582,0,0,0-3.613.53L121,17.346a2.582,2.582,0,1,0,4.144,3.083l6.2-8.326A2.583,2.583,0,0,0,130.812,8.49Z" transform="translate(-120.491 -7.979)"/></g><g transform="translate(31.487 23.242)"><path class="a" d="M60.93,30.715A10.332,10.332,0,1,0,71.261,41.047,10.344,10.344,0,0,0,60.93,30.715Zm0,15.5A5.166,5.166,0,1,1,66.1,41.047,5.171,5.171,0,0,1,60.93,46.213Z" transform="translate(-50.598 -30.715)"/></g><g transform="translate(13.406 56.82)"><path class="a" d="M37.036,75.088A10.332,10.332,0,1,0,47.367,85.42,10.343,10.343,0,0,0,37.036,75.088Zm0,15.5A5.166,5.166,0,1,1,42.2,85.42,5.171,5.171,0,0,1,37.036,90.586Z" transform="translate(-26.704 -75.088)"/></g><g transform="translate(39.236 80.067)"><path class="a" d="M71.17,105.808A10.332,10.332,0,1,0,81.5,116.14,10.343,10.343,0,0,0,71.17,105.808Zm0,15.5a5.166,5.166,0,1,1,5.166-5.166A5.171,5.171,0,0,1,71.17,121.306Z" transform="translate(-60.838 -105.808)"/></g><g transform="translate(39.236 108.479)"><path class="a" d="M71.17,143.355A10.332,10.332,0,1,0,81.5,153.687,10.343,10.343,0,0,0,71.17,143.355Zm0,15.5a5.166,5.166,0,1,1,5.166-5.166A5.171,5.171,0,0,1,71.17,158.853Z" transform="translate(-60.838 -143.355)"/></g><g transform="translate(39.236 38.74)"><path class="a" d="M63.421,51.195a2.584,2.584,0,0,0-2.583,2.583V79.607a2.583,2.583,0,1,0,5.165,0V53.778A2.584,2.584,0,0,0,63.421,51.195Z" transform="translate(-60.838 -51.195)"/></g><g transform="translate(28.904 64.569)"><path class="a" d="M67.848,85.328H49.767a2.583,2.583,0,1,0,0,5.165h18.08a2.583,2.583,0,0,0,0-5.165Z" transform="translate(-47.184 -85.328)"/></g><g transform="translate(46.985 64.569)"><path class="a" d="M73.661,85.328a2.584,2.584,0,0,0-2.583,2.583v15.5a2.583,2.583,0,1,0,5.165,0v-15.5A2.584,2.584,0,0,0,73.661,85.328Z" transform="translate(-71.078 -85.328)"/></g><g transform="translate(46.985 95.564)"><path class="a" d="M73.661,126.288a2.584,2.584,0,0,0-2.583,2.583v12.915a2.583,2.583,0,0,0,5.165,0V128.871A2.584,2.584,0,0,0,73.661,126.288Z" transform="translate(-71.078 -126.288)"/></g></svg>