<svg xmlns="http://www.w3.org/2000/svg" width="108.415" height="108.415" viewBox="0 0 108.415 108.415"><path d="M152.494,307.633V279.9a1.73,1.73,0,0,0-1.73-1.73H139.23a1.73,1.73,0,0,0,0,3.46h9.8v26a7.5,7.5,0,1,0,3.46,0Zm-1.73,11.33a4.037,4.037,0,1,1,4.037-4.037A4.041,4.041,0,0,1,150.764,318.963Z" transform="translate(-105.783 -214.008)"/><path d="M232.494,307.633V279.9a1.73,1.73,0,0,0-1.73-1.73H219.231a1.73,1.73,0,0,0,0,3.46h9.8v26a7.5,7.5,0,1,0,3.46,0Zm-1.73,11.33a4.037,4.037,0,1,1,4.037-4.037A4.041,4.041,0,0,1,230.764,318.963Z" transform="translate(-167.33 -214.008)"/><path d="M323.45,295.9a7.509,7.509,0,0,0-7.293,5.767h-3.664V279.9a1.73,1.73,0,0,0-1.73-1.73H299.23a1.73,1.73,0,0,0,0,3.46h9.8v21.758a1.73,1.73,0,0,0,1.73,1.73h5.394a7.5,7.5,0,1,0,7.293-9.227Zm0,11.534a4.037,4.037,0,1,1,4.037-4.037A4.041,4.041,0,0,1,323.45,307.43Z" transform="translate(-228.876 -214.008)"/><path d="M104.3,37.266a18.779,18.779,0,0,0-9.022-6.134,32.752,32.752,0,0,0-60.636-15.5,14.956,14.956,0,0,0-19.093,11.1,20.779,20.779,0,0,0,5.232,40.887H24.8V87.655H21.133a7.5,7.5,0,1,0,0,3.46h5.394a1.73,1.73,0,0,0,1.73-1.73V65.9a1.73,1.73,0,0,0-1.73-1.73h-5.75a17.318,17.318,0,0,1-3.389-34.3,1.73,1.73,0,0,0,1.379-1.472,11.489,11.489,0,0,1,15.944-9.041,1.73,1.73,0,0,0,2.2-.751A29.292,29.292,0,0,1,91.851,32.481a1.73,1.73,0,0,0,1.34,1.67,15.205,15.205,0,0,1-3.442,30.016h-.941a1.73,1.73,0,1,0,0,3.46h.941A18.664,18.664,0,0,0,104.3,37.266ZM13.84,93.421a4.037,4.037,0,1,1,4.037-4.037A4.041,4.041,0,0,1,13.84,93.421Z"/><path d="M354.984,111.467H355a1.73,1.73,0,0,0,1.714-1.746,23.279,23.279,0,0,0-1.6-8.288,1.73,1.73,0,1,0-3.223,1.259,19.828,19.828,0,0,1,1.362,7.061,1.73,1.73,0,0,0,1.73,1.714Z" transform="translate(-270.629 -77.188)"/><path d="M280.924,50.785a1.73,1.73,0,1,0,2.667-2.2A23.467,23.467,0,0,0,265.457,40a1.73,1.73,0,0,0,0,3.46,20.019,20.019,0,0,1,15.467,7.325Z" transform="translate(-202.893 -30.773)"/></svg>