<svg xmlns="http://www.w3.org/2000/svg" width="107.764" height="107.764" viewBox="0 0 107.764 107.764"><g transform="translate(43.105)"><path d="M202.776,0a10.776,10.776,0,1,0,10.776,10.776A10.776,10.776,0,0,0,202.776,0Zm0,17.961a7.184,7.184,0,1,1,7.184-7.184A7.184,7.184,0,0,1,202.776,17.961Z" transform="translate(-192)"/></g><g transform="translate(37.717 23.349)"><path d="M191.349,104h-.424l-.379.189a14.317,14.317,0,0,1-12.763,0L177.4,104h-.424a8.991,8.991,0,0,0-8.98,8.98v10.776a5.388,5.388,0,0,0,5.388,5.388h21.553a5.388,5.388,0,0,0,5.388-5.388V112.98A8.991,8.991,0,0,0,191.349,104Zm5.388,19.757a1.8,1.8,0,0,1-1.8,1.8H173.388a1.8,1.8,0,0,1-1.8-1.8V112.98a5.388,5.388,0,0,1,5.006-5.374,17.974,17.974,0,0,0,15.134,0,5.388,5.388,0,0,1,5.006,5.374Z" transform="translate(-168 -104)"/></g><g transform="translate(80.823 59.27)"><path d="M370.776,264a10.776,10.776,0,1,0,10.776,10.776A10.776,10.776,0,0,0,370.776,264Zm0,17.961a7.184,7.184,0,1,1,7.184-7.184A7.184,7.184,0,0,1,370.776,281.961Z" transform="translate(-360 -264)"/></g><g transform="translate(75.434 82.619)"><path d="M359.349,368h-.424l-.379.18a14.319,14.319,0,0,1-12.763,0L345.4,368h-.424a8.991,8.991,0,0,0-8.98,8.98v10.776a5.388,5.388,0,0,0,5.388,5.388h21.553a5.388,5.388,0,0,0,5.388-5.388V376.98A8.991,8.991,0,0,0,359.349,368Zm5.388,19.757a1.8,1.8,0,0,1-1.8,1.8H341.388a1.8,1.8,0,0,1-1.8-1.8V376.98a5.388,5.388,0,0,1,5.006-5.374,17.974,17.974,0,0,0,15.134,0,5.388,5.388,0,0,1,5.006,5.374Z" transform="translate(-336 -368)"/></g><g transform="translate(5.388 59.27)"><path d="M34.776,264a10.776,10.776,0,1,0,10.776,10.776A10.776,10.776,0,0,0,34.776,264Zm0,17.961a7.184,7.184,0,1,1,7.184-7.184A7.184,7.184,0,0,1,34.776,281.961Z" transform="translate(-24 -264)"/></g><g transform="translate(0 82.619)"><path d="M23.349,368h-.424l-.379.18a14.319,14.319,0,0,1-12.763,0L9.4,368H8.98A8.991,8.991,0,0,0,0,376.98v10.776a5.388,5.388,0,0,0,5.388,5.388H26.941a5.388,5.388,0,0,0,5.388-5.388V376.98A8.991,8.991,0,0,0,23.349,368Zm5.388,19.757a1.8,1.8,0,0,1-1.8,1.8H5.388a1.8,1.8,0,0,1-1.8-1.8V376.98A5.388,5.388,0,0,1,8.6,371.607a17.974,17.974,0,0,0,15.134,0,5.388,5.388,0,0,1,5.006,5.374Z" transform="translate(0 -368)"/></g><g transform="translate(35.921 88.006)"><path d="M195.778,395.2l0-.006a1.8,1.8,0,0,0-2.356-.948h0a39.84,39.84,0,0,1-25.617,1.764l1.681-.494a1.8,1.8,0,0,0-1.009-3.448l-7.184,2.107c-.027,0-.047.031-.072.04a1.78,1.78,0,0,0-.463.257,1.568,1.568,0,0,0-.18.113,1.74,1.74,0,0,0-.44.611,1.8,1.8,0,0,0-.136.742,5.534,5.534,0,0,0,.18.718c.011.025,0,.054.02.079l3.592,6.874a1.8,1.8,0,0,0,3.186-1.663l-1.462-2.795a43.232,43.232,0,0,0,29.31-1.595A1.8,1.8,0,0,0,195.778,395.2Z" transform="translate(-159.998 -391.995)"/></g><g transform="translate(68.25 14.059)"><path d="M337.6,95.786a1.8,1.8,0,0,0-2.54,0l-2.541,2.541A43.04,43.04,0,0,0,306.5,62.766a1.8,1.8,0,1,0-1.408,3.3,39.454,39.454,0,0,1,23.756,31.742l-2.026-2.026a1.8,1.8,0,0,0-2.54,2.54l5.388,5.388a1.8,1.8,0,0,0,2.54,0l0,0,5.388-5.388A1.8,1.8,0,0,0,337.6,95.786Z" transform="translate(-303.998 -62.622)"/></g><g transform="translate(10.776 10.807)"><path d="M76.685,52.88a1.671,1.671,0,0,0-.047-.311c0-.016-.02-.027-.027-.045s0-.031,0-.045a1.723,1.723,0,0,0-.169-.248,1.813,1.813,0,0,0-.2-.3,1.686,1.686,0,0,0-.35-.239,1.581,1.581,0,0,0-.2-.145L68.5,48.27a1.8,1.8,0,0,0-1.491,3.265l3.72,1.7A43.039,43.039,0,0,0,48,91.21a1.8,1.8,0,0,0,3.592,0A39.452,39.452,0,0,1,71.031,57.185l-1.3,2.714a1.8,1.8,0,0,0,.839,2.394,1.768,1.768,0,0,0,.778.18,1.8,1.8,0,0,0,1.616-1.018l3.592-7.495a.082.082,0,0,1,.014-.056,1.727,1.727,0,0,0,.1-.381,1.86,1.86,0,0,0,.068-.3A1.792,1.792,0,0,0,76.685,52.88Z" transform="translate(-48 -48.134)"/></g></svg>