<svg xmlns="http://www.w3.org/2000/svg" width="143.148" height="143.148" viewBox="0 0 143.148 143.148"><defs><style>.a{fill:#497bfa;}</style></defs><g transform="translate(-1 -1)"><path d="M37.324,5A32.324,32.324,0,1,0,69.647,37.324,32.359,32.359,0,0,0,37.324,5Zm0,60.03A27.706,27.706,0,1,1,65.03,37.324,27.737,27.737,0,0,1,37.324,65.03Z" transform="translate(5.235 5.235)"/><path d="M22.927,53a6.926,6.926,0,1,0,6.927,6.926A6.935,6.935,0,0,0,22.927,53Zm0,9.235a2.309,2.309,0,1,1,2.309-2.309A2.31,2.31,0,0,1,22.927,62.235Z" transform="translate(19.633 68.059)"/><path class="a" d="M22.927,16a6.927,6.927,0,1,0,6.927,6.927A6.935,6.935,0,0,0,22.927,16Zm0,9.235a2.309,2.309,0,1,1,2.309-2.309A2.311,2.311,0,0,1,22.927,25.235Z" transform="translate(19.633 19.633)"/><path class="a" d="M14.927,16a6.927,6.927,0,1,0,6.926,6.927A6.935,6.935,0,0,0,14.927,16Zm0,9.235a2.309,2.309,0,1,1,2.309-2.309A2.311,2.311,0,0,1,14.927,25.235Z" transform="translate(9.162 19.633)"/><path class="a" d="M24,22.927A6.927,6.927,0,1,0,30.926,16,6.935,6.935,0,0,0,24,22.927Zm9.235,0a2.309,2.309,0,1,1-2.309-2.309A2.311,2.311,0,0,1,33.235,22.927Z" transform="translate(30.103 19.633)"/><path class="a" d="M47,49H74.706v4.618H47Z" transform="translate(60.206 62.824)"/><path class="a" d="M47,53H65.471v4.618H47Z" transform="translate(60.206 68.059)"/><path d="M57,53h4.618v4.618H57Z" transform="translate(73.295 68.059)"/><path class="a" d="M47,57H74.706v4.618H47Z" transform="translate(60.206 73.295)"/><path class="a" d="M47,27H74.706v4.618H47Z" transform="translate(60.206 34.03)"/><path class="a" d="M47,31H74.706v4.618H47Z" transform="translate(60.206 39.265)"/><path d="M57,35h4.618v4.618H57Z" transform="translate(73.295 44.5)"/><path class="a" d="M47,35H65.471v4.618H47Z" transform="translate(60.206 44.5)"/><path d="M104.9,42.559h32.324a6.935,6.935,0,0,0,6.926-6.927V7.927A6.935,6.935,0,0,0,137.221,1H104.9a6.935,6.935,0,0,0-6.927,6.927V19.471H87.78L80.849,26.4A41.557,41.557,0,1,0,30.5,82.322l.785,1.316a14.5,14.5,0,0,1,2.034,7.185l-6.61,33.056a16.116,16.116,0,0,0-.316,3.17v.937a16.162,16.162,0,0,0,32.324,0v-.937a16.29,16.29,0,0,0-.314-3.17L51.8,90.825a14.482,14.482,0,0,1,2.034-7.183l.785-1.318c1.184-.36,2.341-.783,3.479-1.244l29.4,44.6H97.971v11.544a6.935,6.935,0,0,0,6.927,6.926h32.324a6.935,6.935,0,0,0,6.926-6.926V109.515a6.935,6.935,0,0,0-6.926-6.926H104.9a6.935,6.935,0,0,0-6.927,6.926v11.544H89.978L62.327,79.106A41.839,41.839,0,0,0,76.734,66.146l8.737,8.737h12.5V86.427a6.935,6.935,0,0,0,6.927,6.926h32.324a6.935,6.935,0,0,0,6.926-6.926V58.721a6.935,6.935,0,0,0-6.926-6.927H104.9a6.935,6.935,0,0,0-6.927,6.927V70.265H87.383L79.216,62.1a41.118,41.118,0,0,0,3.3-30.837l7.176-7.174h8.279V35.633a6.935,6.935,0,0,0,6.927,6.927Zm-2.309,66.956a2.31,2.31,0,0,1,2.309-2.309h32.324a2.31,2.31,0,0,1,2.309,2.309v27.706a2.31,2.31,0,0,1-2.309,2.309H104.9a2.31,2.31,0,0,1-2.309-2.309Zm0-50.794a2.311,2.311,0,0,1,2.309-2.309h32.324a2.311,2.311,0,0,1,2.309,2.309V86.427a2.31,2.31,0,0,1-2.309,2.309H104.9a2.31,2.31,0,0,1-2.309-2.309Zm-48.709,66.06a11.543,11.543,0,0,1,.224,2.267v.937a11.544,11.544,0,0,1-23.088,0v-.937a11.463,11.463,0,0,1,.224-2.263l6.287-31.432h10.11ZM47.331,88.736H37.784a19.089,19.089,0,0,0-1.353-5.121,41.578,41.578,0,0,0,6.128.5,41.521,41.521,0,0,0,6.125-.5,19.175,19.175,0,0,0-1.353,5.121ZM42.559,79.5A36.941,36.941,0,1,1,79.5,42.559,36.984,36.984,0,0,1,42.559,79.5Zm60.03-71.574A2.311,2.311,0,0,1,104.9,5.618h32.324a2.311,2.311,0,0,1,2.309,2.309V35.633a2.311,2.311,0,0,1-2.309,2.309H104.9a2.311,2.311,0,0,1-2.309-2.309Z" transform="translate(0 0)"/><path class="a" d="M47,5H74.706V9.618H47Z" transform="translate(60.206 5.235)"/><path d="M47,9h4.618v4.618H47Z" transform="translate(60.206 10.471)"/><path class="a" d="M51,9H69.471v4.618H51Z" transform="translate(65.442 10.471)"/><path class="a" d="M47,13H74.706v4.618H47Z" transform="translate(60.206 15.706)"/></g></svg>