<svg xmlns="http://www.w3.org/2000/svg" width="214" height="183" viewBox="0 0 214 183"><defs><style>.a{opacity:0.387;}.b,.c{fill:#fff;}.c{font-size:26px;font-family:Avenir-Medium, Avenir;font-weight:500;}</style></defs><g transform="translate(-835 -3607)"><g class="a" transform="translate(882 3566.919)"><g transform="translate(0 40.081)"><path class="b" d="M112.111,40.081H7.362A7.37,7.37,0,0,0,0,47.443v71.08a7.37,7.37,0,0,0,7.362,7.362H42.79l-1.433,11.464H35.419a1.75,1.75,0,1,0,0,3.5H84.053a1.75,1.75,0,1,0,0-3.5H78.116l-1.433-11.464h35.428a7.37,7.37,0,0,0,7.362-7.362V47.443A7.37,7.37,0,0,0,112.111,40.081ZM44.884,137.348l1.433-11.464h6.441l.632,2.527a6.542,6.542,0,0,0,12.693,0l.632-2.527h6.441l1.433,11.464Zm11.482-11.464h6.74l-.42,1.678a3.042,3.042,0,0,1-5.9,0Zm59.606-7.362h0a3.866,3.866,0,0,1-3.862,3.861H7.362A3.866,3.866,0,0,1,3.5,118.522V47.443a3.866,3.866,0,0,1,3.862-3.861H112.111a3.866,3.866,0,0,1,3.862,3.861v71.08Z" transform="translate(0 -40.081)"/></g><g transform="translate(7.482 47.563)"><path class="b" d="M123.6,72.146H33.814a1.75,1.75,0,0,0-1.75,1.75v67.339a1.75,1.75,0,0,0,1.75,1.75h3.741a1.75,1.75,0,0,0,0-3.5H35.564V75.646H123.6a1.75,1.75,0,1,0,0-3.5Z" transform="translate(-32.064 -72.146)"/></g><g transform="translate(18.705 47.563)"><path class="b" d="M171.7,72.146h-3.741a1.75,1.75,0,1,0,0,3.5h1.991v63.838H81.912a1.75,1.75,0,1,0,0,3.5H171.7a1.75,1.75,0,0,0,1.75-1.75V73.9A1.75,1.75,0,0,0,171.7,72.146Z" transform="translate(-80.162 -72.146)"/></g><g transform="translate(31.799 58.786)"><path class="b" d="M188.037,128.395a1.749,1.749,0,0,0-1.3-.67l-41.151-1.871c-.032,0-.064,0-.1,0a3.626,3.626,0,0,0-1.455-1.958l-5.04-3.36a1.75,1.75,0,0,0-1.941,2.912l5.039,3.359a.122.122,0,0,1,.049.067l6.419,22.467a5.51,5.51,0,0,0,.953,1.874l-2.349,4.7a3.6,3.6,0,0,0,.158,3.523,3.635,3.635,0,0,0,.9.988,5.491,5.491,0,1,0,9.883.729h15.955a5.491,5.491,0,1,0,10.03-.454,1.748,1.748,0,0,0-1.173-3.046H150.4a.12.12,0,0,1-.108-.174l2.164-4.327a5.494,5.494,0,0,0,1.369.174,5.639,5.639,0,0,0,.655-.038l24.591-2.893a7.344,7.344,0,0,0,6.359-5.868l2.942-14.709A1.75,1.75,0,0,0,188.037,128.395Zm-8.86,32.757a1.991,1.991,0,1,1-1.991,1.991A1.993,1.993,0,0,1,179.177,161.152Zm-26.187,0A1.991,1.991,0,1,1,151,163.143,1.993,1.993,0,0,1,152.99,161.152ZM148.7,137.076l-2.193-7.676,7,.318,1.213,7.358Zm5.377,12.734a1.982,1.982,0,0,1-2.147-1.43l-2.23-7.8h5.594l1.47,8.918Zm10.259-1.207-4.091.481-1.4-8.508h5.494Zm0-11.527h-6.071l-1.186-7.2,7.257.33ZM173.2,147.56l-5.363.631v-7.615h5.995Zm.949-10.484h-6.312V130.37l6.89.313ZM182,143.839a3.852,3.852,0,0,1-3.335,3.078l-1.917.226.594-6.566h5.311Zm1.353-6.763H177.66l.564-6.234,6.319.287Z" transform="translate(-136.276 -120.241)"/></g></g><text class="c" transform="translate(835 3748)"><tspan x="30.625" y="26">E-Commerce</tspan></text></g></svg>