<svg xmlns="http://www.w3.org/2000/svg" width="244" height="176" viewBox="0 0 244 176"><defs><style>.a{opacity:0.387;}.b,.c{fill:#fff;}.c{font-size:26px;font-family:Avenir-Medium, Avenir;font-weight:500;}</style></defs><g transform="translate(-159 -3607)"><g class="a" transform="translate(231 3607)"><path class="b" d="M99.1,48.816H92.348a41.693,41.693,0,0,0-8.335-23.708,1.473,1.473,0,1,0-2.36,1.765A38.77,38.77,0,0,1,89.4,48.816H84.288A34.076,34.076,0,0,0,51.762,16.29V11.18a38.858,38.858,0,0,1,26.2,11.433,1.473,1.473,0,0,0,2.084-2.083,41.786,41.786,0,0,0-28.286-12.3V1.473a1.473,1.473,0,1,0-2.947,0V8.232A41.752,41.752,0,0,0,20.287,20.776a1.473,1.473,0,0,0,2.1,2.066A38.827,38.827,0,0,1,48.816,11.18v5.11A34.077,34.077,0,0,0,16.29,48.816H11.178a38.8,38.8,0,0,1,7.538-21.661,1.473,1.473,0,1,0-2.375-1.744,41.724,41.724,0,0,0-8.11,23.4H1.473a1.473,1.473,0,0,0,0,2.947H8.232A42.077,42.077,0,0,0,48.816,92.346V99.1a1.473,1.473,0,1,0,2.947,0V92.346A42.076,42.076,0,0,0,92.346,51.762H99.1a1.473,1.473,0,1,0,0-2.947ZM50.289,19.2A31.086,31.086,0,1,1,19.2,50.289,31.122,31.122,0,0,1,50.289,19.2ZM11.181,51.762H16.29A34.076,34.076,0,0,0,48.816,84.288V89.4A39.187,39.187,0,0,1,11.181,51.762ZM51.762,89.4V84.288A34.077,34.077,0,0,0,84.288,51.762H89.4A39.187,39.187,0,0,1,51.762,89.4Z"/><path class="b" d="M155.137,170.56v8.874a1.473,1.473,0,1,0,2.947,0V170.56a14.052,14.052,0,0,0,12.476-12.476h8.874a1.473,1.473,0,1,0,0-2.947H170.56a14.052,14.052,0,0,0-12.476-12.476v-8.874a1.473,1.473,0,1,0-2.947,0v8.874a14.052,14.052,0,0,0-12.476,12.476h-8.874a1.473,1.473,0,1,0,0,2.947h8.874A14.052,14.052,0,0,0,155.137,170.56Zm0-24.929v5.823a1.473,1.473,0,0,0,2.947,0V145.63a11.1,11.1,0,0,1,9.507,9.507h-5.823a1.473,1.473,0,0,0,0,2.947h5.823a11.1,11.1,0,0,1-9.507,9.507v-5.823a1.473,1.473,0,1,0-2.947,0v5.823a11.1,11.1,0,0,1-9.507-9.507h5.823a1.473,1.473,0,1,0,0-2.947H145.63A11.1,11.1,0,0,1,155.137,145.63Z" transform="translate(-106.321 -106.321)"/></g><text class="c" transform="translate(159 3741)"><tspan x="13.645" y="26">Gaming &amp; Casinos</tspan></text></g></svg>