<svg xmlns="http://www.w3.org/2000/svg" width="112.181" height="112.181" viewBox="0 0 112.181 112.181"><defs><style>.a{fill:#497bfa;}</style></defs><g transform="translate(0)"><path class="a" d="M110.537,108.894h-1.643V65.074h1.643a1.643,1.643,0,0,0,0-3.287H83.721v-4.9l1.119.377a1.643,1.643,0,1,0,1.049-3.115L79.1,51.863V40.428h1.643a1.643,1.643,0,0,0,0-3.287h-1.7a22.241,22.241,0,0,0-21.3-20.549V14.242H70.989a3.839,3.839,0,0,0,3.834-3.834V3.834A3.839,3.839,0,0,0,70.989,0H56.09a1.643,1.643,0,0,0-1.643,1.643v14.95a22.265,22.265,0,0,0-13.112,4.916A1.643,1.643,0,0,0,43.4,24.065a18.965,18.965,0,0,1,11.893-4.2h1.591a18.946,18.946,0,0,1,18.848,17.28H36.444a18.774,18.774,0,0,1,3.32-9.171,1.643,1.643,0,0,0-2.7-1.881,22.047,22.047,0,0,0-3.923,11.052h-1.7a1.643,1.643,0,0,0,0,3.287h1.643V51.863l-6.792,2.288a1.643,1.643,0,1,0,1.049,3.115l1.119-.377v4.9H1.643a1.643,1.643,0,0,0,0,3.287H3.287v43.821H1.643a1.643,1.643,0,0,0,0,3.287H110.537a1.643,1.643,0,0,0,0-3.287ZM57.734,3.287H70.989a.548.548,0,0,1,.548.548v6.573a.548.548,0,0,1-.548.548H57.734ZM36.371,40.428H75.81V50.756l-16.4-5.523a10.465,10.465,0,0,0-6.644,0l-16.4,5.523ZM31.747,55.782l22.071-7.434a7.166,7.166,0,0,1,4.546,0l22.071,7.434v6.005H31.747ZM21.411,108.894H13.146v-6.573h8.265Zm0-9.86H13.146V93.507a4.132,4.132,0,0,1,8.265,0Zm6.573,9.86H24.7V93.507a7.419,7.419,0,0,0-14.838,0v15.387H6.573V83.017H27.984Zm0-29.164H6.573V65.074H22.611v3.4a4.935,4.935,0,0,0,4.93,4.93h.443V79.73Zm10.2,29.164H31.27V73.4h6.915v35.495Zm10.685,0h-7.4V73.4h7.4Zm10.2,0H52.157V73.4h6.915Zm11.637,0h-8.35V73.4H62.8a1.643,1.643,0,0,0,0-3.287H27.541A1.645,1.645,0,0,1,25.9,68.47v-3.4H86.283v3.4a1.645,1.645,0,0,1-1.643,1.643H69.37a1.643,1.643,0,0,0,0,3.287h1.339v35.495Zm10.2,0H74V73.4h6.915v35.495Zm18.124,0H90.77v-6.573h8.265Zm0-9.86H90.77V93.507a4.132,4.132,0,0,1,8.265,0Zm6.573,9.86h-3.287V93.507a7.419,7.419,0,0,0-14.838,0v15.387H84.2V83.017h21.411Zm0-29.164H84.2V73.4h.443a4.935,4.935,0,0,0,4.93-4.93v-3.4h16.038Z"/></g></svg>