<svg xmlns="http://www.w3.org/2000/svg" width="303" height="183" viewBox="0 0 303 183"><defs><style>.a,.b{fill:#fff;}.a{opacity:0.387;}.b{font-size:26px;font-family:Avenir-Medium, Avenir;font-weight:500;}</style></defs><g transform="translate(-1540 -3607)"><path class="a" d="M94.976,89.092a5.825,5.825,0,0,0-3.544,1.218L71.989,70.573a29.828,29.828,0,0,0,7.42-18.463H87.5a5.88,5.88,0,1,0,.5-3.362H79.37a29.838,29.838,0,0,0-7.655-18L91.253,10.4a5.823,5.823,0,0,0,3.722,1.366,5.883,5.883,0,1,0-5.884-5.883,5.793,5.793,0,0,0,.263,1.641L69.327,28.38A29.84,29.84,0,0,0,52.11,20.945V11.177a5.887,5.887,0,1,0-3.362.5v9.166A29.841,29.841,0,0,0,30.041,28L11.021,8.691a5.806,5.806,0,0,0,.745-2.808,5.883,5.883,0,1,0-5.883,5.883,5.8,5.8,0,0,0,2.746-.713L27.616,30.326a29.862,29.862,0,0,0-8.039,18.423h-8.4a5.887,5.887,0,1,0,.5,3.362h7.857a29.867,29.867,0,0,0,8.312,19.444.2.2,0,0,0,0,.023L9.668,90.509a5.83,5.83,0,0,0-3.784-1.417,5.884,5.884,0,1,0,5.883,5.884,5.808,5.808,0,0,0-.235-1.554L30.307,73.867a29.84,29.84,0,0,0,18.442,6.908v8.4a5.88,5.88,0,1,0,3.362.506v-9a29.839,29.839,0,0,0,17.518-7.71l19.807,20.1a5.794,5.794,0,0,0-.344,1.9,5.884,5.884,0,1,0,5.884-5.884ZM52.11,65.5a26.55,26.55,0,0,1,6.063,1.349c-1.582,4.813-3.785,8.172-6.063,9.533Zm0-3.374V52.11h8.376A54.738,54.738,0,0,1,59.1,63.616,29.853,29.853,0,0,0,52.11,62.127Zm0-13.379V39.5A29.878,29.878,0,0,0,59.1,38.009a54.225,54.225,0,0,1,1.374,10.739Zm0-12.624V25.24c2.278,1.361,4.481,4.72,6.064,9.534A26.6,26.6,0,0,1,52.11,36.124ZM57.068,25.29a26.588,26.588,0,0,1,9.269,4.919,26.567,26.567,0,0,1-5.044,3.278A26.724,26.724,0,0,0,57.068,25.29Zm-8.32-.547v11.48a26.661,26.661,0,0,1-7.229-1.182C43.352,29.317,46.062,25.584,48.748,24.743ZM38.373,33.814A26.454,26.454,0,0,1,32.6,30.22a26.565,26.565,0,0,1,10.328-5.2A26.588,26.588,0,0,0,38.373,33.814Zm10.376,5.77v9.164H39.311a54.521,54.521,0,0,1,1.313-10.46A30.047,30.047,0,0,0,48.748,39.585Zm0,12.525v9.928a30.057,30.057,0,0,0-8.125,1.291A55,55,0,0,1,39.294,52.11Zm0,13.291v11.48c-2.687-.842-5.4-4.577-7.231-10.3A26.651,26.651,0,0,1,48.748,65.4ZM42.924,76.6A26.561,26.561,0,0,1,32.588,71.4a26.491,26.491,0,0,1,5.784-3.592A26.6,26.6,0,0,0,42.924,76.6Zm18.37-8.47a26.587,26.587,0,0,1,5.041,3.283,26.587,26.587,0,0,1-9.268,4.917A26.71,26.71,0,0,0,61.294,68.133Zm7.5.964a29.953,29.953,0,0,0-6.545-4.216,57.921,57.921,0,0,0,1.6-12.771h12.2A26.51,26.51,0,0,1,68.8,69.1Zm24.5-20.348a2.522,2.522,0,1,1-2.521,2.522A2.525,2.525,0,0,1,93.294,48.748Zm-29.465,0A57.362,57.362,0,0,0,62.25,36.74,29.888,29.888,0,0,0,68.8,32.527a26.517,26.517,0,0,1,7.213,16.221ZM94.976,3.362a2.522,2.522,0,1,1-2.522,2.522,2.524,2.524,0,0,1,2.522-2.522ZM47.068,5.884A2.521,2.521,0,1,1,49.589,8.4,2.524,2.524,0,0,1,47.068,5.884Zm-43.706,0A2.522,2.522,0,1,1,5.884,8.4,2.525,2.525,0,0,1,3.362,5.884Zm26.784,26.65a29.829,29.829,0,0,0,7.305,4.558,57.588,57.588,0,0,0-1.5,11.656H22.94A26.513,26.513,0,0,1,30.146,32.534ZM5.884,53.791A2.522,2.522,0,1,1,8.4,51.27,2.524,2.524,0,0,1,5.884,53.791Zm30.05-1.681A58.147,58.147,0,0,0,37.45,64.526a29.793,29.793,0,0,0-7.309,4.558A26.5,26.5,0,0,1,22.9,52.11ZM5.884,97.5a2.522,2.522,0,1,1,2.155-3.811,0,0,0,0,1,0,0A2.489,2.489,0,0,1,8.4,94.976,2.524,2.524,0,0,1,5.884,97.5Zm43.705,0a2.522,2.522,0,1,1,2.521-2.521A2.523,2.523,0,0,1,49.589,97.5Zm45.387,0A2.522,2.522,0,1,1,97.5,94.976,2.524,2.524,0,0,1,94.976,97.5Zm0,0" transform="translate(1641 3607)"/><text class="b" transform="translate(1540 3748)"><tspan x="12.504" y="26">Information Technology</tspan></text></g></svg>