<svg xmlns="http://www.w3.org/2000/svg" width="147.798" height="147.795" viewBox="0 0 147.798 147.795"><defs><style>.a{fill:#497bfa;}</style></defs><path class="a" d="M51.719,49.876H29.1a2.457,2.457,0,0,0-1.742.722l-9.131,9.131h-1.9a7.39,7.39,0,1,0,0,4.927h2.917a2.457,2.457,0,0,0,1.742-.722L30.116,54.8h21.6a7.315,7.315,0,0,0,11.8,3.054l10.038,5.584a7.3,7.3,0,0,0-.123,1.214,7.39,7.39,0,0,0,14.78,0,7.3,7.3,0,0,0-.123-1.214l10.038-5.584a7.325,7.325,0,0,0,4.865,1.872A7.372,7.372,0,0,0,105.457,45.4V34.64a7.368,7.368,0,1,0-7.328-12.454L88.091,16.6a7.243,7.243,0,0,0,.123-1.212,7.39,7.39,0,0,0-14.78,0,7.3,7.3,0,0,0,.123,1.214L63.52,22.188a7.315,7.315,0,0,0-11.8,3.054h-21.6l-9.131-9.131a2.457,2.457,0,0,0-1.742-.722H16.326a7.39,7.39,0,1,0,0,4.927h1.9l9.131,9.131a2.457,2.457,0,0,0,1.742.722H51.719a7.383,7.383,0,0,0,4.473,4.473v2.917H16.326a7.39,7.39,0,1,0,0,4.927H56.192V45.4a7.383,7.383,0,0,0-4.473,4.473ZM9.39,64.655a2.463,2.463,0,1,1,2.463-2.463A2.467,2.467,0,0,1,9.39,64.655Zm0-44.339a2.463,2.463,0,1,1,2.463-2.463A2.467,2.467,0,0,1,9.39,20.316Zm0,22.169a2.463,2.463,0,1,1,2.463-2.463A2.467,2.467,0,0,1,9.39,42.486ZM58.655,54.8a2.463,2.463,0,1,1,2.463-2.463A2.467,2.467,0,0,1,58.655,54.8ZM63.52,33.224l10.038,5.584a6.049,6.049,0,0,0,0,2.429L63.52,46.821a7.4,7.4,0,0,0-2.4-1.419V34.64a7.286,7.286,0,0,0,2.4-1.416Zm34.609,13.6L88.091,41.237a6.049,6.049,0,0,0,0-2.429l10.038-5.584a7.4,7.4,0,0,0,2.4,1.419V45.4A7.286,7.286,0,0,0,98.129,46.821Zm-32.207,4.3L75.96,45.54a7.4,7.4,0,0,0,2.4,1.419V57.721a7.335,7.335,0,0,0-2.4,1.419L65.922,53.556a6.061,6.061,0,0,0,0-2.431Zm14.9-13.565a2.463,2.463,0,1,1-2.463,2.463A2.467,2.467,0,0,1,80.825,37.559Zm2.463,9.4a7.335,7.335,0,0,0,2.4-1.419l10.038,5.584a6.049,6.049,0,0,0,0,2.429L85.69,59.138a7.4,7.4,0,0,0-2.4-1.419Zm12.44-18.039L85.69,34.5a7.4,7.4,0,0,0-2.4-1.419V22.324a7.335,7.335,0,0,0,2.4-1.419l10.038,5.584a6.061,6.061,0,0,0,0,2.431ZM78.361,33.086a7.335,7.335,0,0,0-2.4,1.419L65.922,28.921a6.049,6.049,0,0,0,0-2.429L75.96,20.908a7.4,7.4,0,0,0,2.4,1.419Zm2.463,34.033a2.463,2.463,0,1,1,2.463-2.463A2.467,2.467,0,0,1,80.825,67.119ZM102.994,54.8a2.463,2.463,0,1,1,2.463-2.463A2.467,2.467,0,0,1,102.994,54.8Zm0-29.559a2.463,2.463,0,1,1-2.463,2.463A2.467,2.467,0,0,1,102.994,25.243ZM80.825,12.927a2.463,2.463,0,1,1-2.463,2.463A2.467,2.467,0,0,1,80.825,12.927ZM58.655,25.243a2.463,2.463,0,1,1-2.463,2.463A2.467,2.467,0,0,1,58.655,25.243Z" transform="translate(-2 6.778)"/><path d="M38.006,149.8H77.418a2.464,2.464,0,0,0,2.463-2.463V130.089H111.9a2.464,2.464,0,0,0,2.463-2.463V98.067H131.61a2.465,2.465,0,0,0,2.352-3.2l-12.282-39.3A55.39,55.39,0,0,0,63.006,2.1,55.644,55.644,0,0,0,19.674,27.765l4.148,2.658A50.707,50.707,0,0,1,63.3,7.014a50.467,50.467,0,0,1,53.475,49.3,2.357,2.357,0,0,0,.347,1.175L128.26,93.14H111.9a2.464,2.464,0,0,0-2.463,2.463v9.853h-7.39a7.4,7.4,0,0,1-7.39-7.39H89.735a12.33,12.33,0,0,0,12.316,12.316h7.39v14.78H77.418a2.464,2.464,0,0,0-2.463,2.463v17.243H40.469v-2.382c0-19.93-5.991-40.309-17.327-58.934A50.042,50.042,0,0,1,17.509,70.34L12.745,71.6a54.972,54.972,0,0,0,6.188,14.514c10.865,17.854,16.61,37.346,16.61,56.372v4.845a2.464,2.464,0,0,0,2.463,2.463Z" transform="translate(13.723 -2.001)"/></svg>