<svg xmlns="http://www.w3.org/2000/svg" width="100.859" height="100.859" viewBox="0 0 100.859 100.859"><defs><style>.a{fill:#497bfa;}</style></defs><g transform="translate(-194 1)"><g transform="translate(193 -2)"><path class="a" d="M96.979,10.761H93.726V9.134a4.886,4.886,0,0,0-4.88-4.88H70.951A3.257,3.257,0,0,0,67.7,1H35.162a3.257,3.257,0,0,0-3.254,3.254H14.014a4.886,4.886,0,0,0-4.88,4.88v1.627H5.88A4.886,4.886,0,0,0,1,15.641V33.535a6.5,6.5,0,0,0,4.88,6.276V88.845A4.886,4.886,0,0,0,1,93.726v6.507a1.626,1.626,0,0,0,1.627,1.627h97.606a1.626,1.626,0,0,0,1.627-1.627V93.726a4.886,4.886,0,0,0-4.88-4.88V39.811a6.5,6.5,0,0,0,4.88-6.276V15.641A4.886,4.886,0,0,0,96.979,10.761ZM88.845,7.507a1.628,1.628,0,0,1,1.627,1.627v1.627H70.951V7.507ZM35.162,4.254H67.7l0,13.014H35.162ZM12.387,9.134a1.628,1.628,0,0,1,1.627-1.627H31.909v3.254H12.387ZM5.88,14.014H31.909v3.254a3.257,3.257,0,0,0,3.254,3.254H67.7a3.257,3.257,0,0,0,3.254-3.254V14.014H96.979a1.628,1.628,0,0,1,1.627,1.627v8.134H4.254V15.641A1.628,1.628,0,0,1,5.88,14.014ZM82.338,27.028h6.507v6.507a3.254,3.254,0,1,1-6.507,0Zm-9.761,0h6.507v6.507a3.254,3.254,0,1,1-6.507,0Zm-9.761,0h6.507v6.507a3.254,3.254,0,0,1-6.507,0Zm-9.761,0h6.507v6.507a3.254,3.254,0,1,1-6.507,0Zm-9.761,0H49.8v6.507a3.254,3.254,0,1,1-6.507,0Zm-9.761,0h6.507v6.507a3.254,3.254,0,0,1-6.507,0Zm-9.761,0h6.507v6.507a3.254,3.254,0,0,1-6.507,0Zm-9.761,0h6.507v6.507a3.254,3.254,0,1,1-6.507,0ZM4.254,33.535V27.028h6.507v6.507a3.254,3.254,0,1,1-6.507,0Zm4.88,19.521H54.683V75.831H9.134ZM54.683,49.8H9.134V46.549H54.683ZM9.134,79.085H54.683v9.761H9.134ZM98.606,93.726v4.88H4.254v-4.88A1.628,1.628,0,0,1,5.88,92.1h91.1A1.628,1.628,0,0,1,98.606,93.726ZM87.218,49.8H64.444V46.549H87.218ZM64.444,53.056H87.218V88.845H64.444ZM90.472,88.845V44.923A1.626,1.626,0,0,0,88.845,43.3H62.817a1.626,1.626,0,0,0-1.627,1.627V88.845H57.937V44.923A1.626,1.626,0,0,0,56.31,43.3H9.134V39.811a6.467,6.467,0,0,0,3.254-2.017,6.421,6.421,0,0,0,9.761,0,6.421,6.421,0,0,0,9.761,0,6.421,6.421,0,0,0,9.761,0,6.421,6.421,0,0,0,9.761,0,6.421,6.421,0,0,0,9.761,0,6.421,6.421,0,0,0,9.761,0,6.421,6.421,0,0,0,9.761,0,6.421,6.421,0,0,0,9.761,0,6.467,6.467,0,0,0,3.254,2.017V88.845Zm8.134-55.31a3.254,3.254,0,1,1-6.507,0V27.028h6.507Z"/><path class="a" d="M0,0H16.1V3.254H0Z" transform="translate(14.481 69.795) rotate(-45)"/><path class="a" d="M0,0H16.1V3.254H0Z" transform="translate(29.121 69.797) rotate(-45)"/><path class="a" d="M45.148,4H28.88a4.88,4.88,0,0,0,0,9.761H45.148a4.88,4.88,0,0,0,0-9.761Zm0,6.507H28.88a1.627,1.627,0,1,1,0-3.254H45.148a1.627,1.627,0,1,1,0,3.254Z" transform="translate(14.416 1.88)"/><ellipse class="a" cx="3.5" cy="3" rx="3.5" ry="3" transform="translate(66 65)"/></g></g></svg>