<svg xmlns="http://www.w3.org/2000/svg" width="142.295" height="142.295" viewBox="0 0 142.295 142.295"><defs><style>.a{fill:#497bfa;}</style></defs><path class="a" d="M200.262,160.131a32.131,32.131,0,1,0-32.131,32.131A32.166,32.166,0,0,0,200.262,160.131Zm-32.131,27.541a27.541,27.541,0,1,1,27.541-27.541A27.572,27.572,0,0,1,168.131,187.672Z" transform="translate(-96.984 -91.279)"/><path class="a" d="M221.77,164.707V160h-4.59v4.707a10.3,10.3,0,0,0,1.148,20.539h2.3a5.738,5.738,0,0,1,0,11.475h-2.3a5.743,5.743,0,0,1-5.738-5.738v-1.148H208v1.148a10.3,10.3,0,0,0,9.18,10.211V205.9h4.59v-4.707a10.3,10.3,0,0,0-1.148-20.539h-2.3a5.738,5.738,0,1,1,0-11.475h2.3a5.743,5.743,0,0,1,5.738,5.738v1.148h4.59v-1.148A10.3,10.3,0,0,0,221.77,164.707Z" transform="translate(-148.328 -114.098)"/><path d="M4.59,18.361H64.262v13.77h4.59V11.475A11.488,11.488,0,0,0,57.377,0h-45.9A11.488,11.488,0,0,0,0,11.475v89.508H4.59Zm0-6.885A6.894,6.894,0,0,1,11.475,4.59h45.9a6.894,6.894,0,0,1,6.885,6.885v2.3H4.59Z"/><rect width="23" height="4" transform="translate(23 115)"/><path d="M0,379.475a11.488,11.488,0,0,0,11.475,11.475h45.9a11.488,11.488,0,0,0,11.475-11.475V368H0Zm4.59-6.885H64.262v6.885a6.894,6.894,0,0,1-6.885,6.885h-45.9a6.894,6.894,0,0,1-6.885-6.885Z" transform="translate(0 -262.426)"/><path d="M313.377,48h-45.9A11.488,11.488,0,0,0,256,59.475v6.885h64.262v82.623h4.59V59.475A11.488,11.488,0,0,0,313.377,48Zm6.885,13.77H260.59v-2.3a6.894,6.894,0,0,1,6.885-6.885h45.9a6.894,6.894,0,0,1,6.885,6.885Z" transform="translate(-182.557 -34.23)"/><rect width="23" height="4" transform="translate(96 129)"/><path d="M260.59,368H256v25.246a11.488,11.488,0,0,0,11.475,11.475h45.9a11.488,11.488,0,0,0,11.475-11.475V381.771H260.59Zm59.672,18.361v6.885a6.894,6.894,0,0,1-6.885,6.885h-45.9a6.894,6.894,0,0,1-6.885-6.885v-6.885Z" transform="translate(-182.557 -262.426)"/><path class="a" d="M376,181.836v4.59h6.885v16.066l18.934-25.246L382.885,152v16.066H376v4.59h11.475V165.77l8.607,11.475-8.607,11.475v-6.885Z" transform="translate(-268.131 -108.393)"/><path class="a" d="M55.82,172.656v-4.59H48.934V152L30,177.246l18.934,25.246V186.426H55.82v-4.59H44.344v6.885l-8.607-11.475,8.607-11.475v6.885Z" transform="translate(-21.393 -108.393)"/><rect width="5" height="4" transform="translate(110 106)"/><rect width="5" height="4" transform="translate(101 106)"/><rect width="4" height="4" transform="translate(92 106)"/><rect width="4" height="4" transform="translate(46 28)"/><rect width="4" height="4" transform="translate(37 28)"/><rect width="4" height="4" transform="translate(28 28)"/></svg>