<svg xmlns="http://www.w3.org/2000/svg" width="145.846" height="145.507" viewBox="0 0 145.846 145.507"><defs><style>.a{fill:#497bfa;}</style></defs><g transform="translate(0.34)"><path class="a" d="M46.251,70.5A24.251,24.251,0,1,0,22,46.251,24.251,24.251,0,0,0,46.251,70.5Zm0-43.652a19.4,19.4,0,1,1-19.4,19.4A19.4,19.4,0,0,1,46.251,26.85Z" transform="translate(26.502 26.502)"/><path class="a" d="M36.275,47.826A2.425,2.425,0,0,1,33.85,45.4H29a7.275,7.275,0,0,0,4.85,6.829V55.1H38.7V52.23a7.258,7.258,0,0,0-2.425-14.1A2.425,2.425,0,1,1,38.7,35.7h4.85a7.275,7.275,0,0,0-4.85-6.829V26H33.85v2.871a7.258,7.258,0,0,0,2.425,14.1,2.425,2.425,0,1,1,0,4.85Z" transform="translate(36.478 32.203)"/><path d="M100.3,85.5a7.275,7.275,0,0,1-7.275,7.275h-67.9A7.275,7.275,0,0,1,17.85,85.5V37H13V85.5A12.14,12.14,0,0,0,25.126,97.628h67.9A12.14,12.14,0,0,0,105.154,85.5V53.976H100.3Z" transform="translate(13.676 47.879)"/><rect class="a" width="5" height="4" transform="translate(111.66 71)"/><path d="M17.85,14.126A7.275,7.275,0,0,1,25.126,6.85h67.9a7.275,7.275,0,0,1,7.275,7.275V45.652h4.85V14.126A12.14,12.14,0,0,0,93.029,2h-67.9A12.14,12.14,0,0,0,13,14.126v48.5h4.85Z" transform="translate(13.676 -2)"/><path d="M93.6,46.227V9.85A4.85,4.85,0,0,0,88.753,5H75.5a4.85,4.85,0,0,0-3.834,1.88L68.411,9.85H41.192L37.938,6.879A4.85,4.85,0,0,0,34.1,5H20.85A4.85,4.85,0,0,0,16,9.85v48.5h4.85V9.85H34.1a2.391,2.391,0,0,0,.383.446l4.123,3.771a2.425,2.425,0,0,0,1.642.633h29.1a2.425,2.425,0,0,0,1.635-.633L75.11,10.3a2.486,2.486,0,0,0,.39-.446H88.753V46.227Z" transform="translate(17.952 2.275)"/><rect class="a" width="5" height="4" transform="translate(101.66 71)"/><path d="M93.6,73.377V49.126h-4.85V73.377H20.85V37H16V73.377a4.85,4.85,0,0,0,4.85,4.85h67.9A4.85,4.85,0,0,0,93.6,73.377Z" transform="translate(17.952 47.879)"/><rect width="14" height="5" transform="translate(65.66 131)"/><path class="a" d="M22.836,42.844l3.429,3.429L33.541,39a2.425,2.425,0,0,0,0-3.429l-7.275-7.275-3.429,3.429,3.136,3.136H10v4.85H25.972Z" transform="translate(9.401 35.47)"/><path class="a" d="M75.541,35.568l-7.275-7.275-3.429,3.429,3.136,3.136H52v4.85H67.972l-3.136,3.136,3.429,3.429L75.541,39A2.425,2.425,0,0,0,75.541,35.568Z" transform="translate(69.255 35.47)"/><path class="a" d="M46,27.858v4.85H61.972l-3.136,3.136,3.429,3.429L69.541,32a2.425,2.425,0,0,0,0-3.429l-7.275-7.275-3.429,3.429,3.136,3.136Z" transform="translate(60.705 25.495)"/><path class="a" d="M62.265,35.293l-3.429,3.429,3.136,3.136H46v4.85H61.972l-3.136,3.136,3.429,3.429L69.541,46a2.425,2.425,0,0,0,0-3.429Z" transform="translate(60.705 45.446)"/><rect class="a" width="5" height="4" transform="translate(9.66 71)"/><rect class="a" width="5" height="4" transform="translate(-0.34 71)"/><rect class="a" width="5" height="5" transform="translate(96.66 87)"/><rect class="a" width="5" height="5" transform="translate(96.66 54)"/></g></svg>