<svg xmlns="http://www.w3.org/2000/svg" width="109.453" height="107.629" viewBox="0 0 109.453 107.629"><path d="M191.611,155.539a20.143,20.143,0,1,0-7.981,15.98c.024-.02.056-.027.08-.049l.033-.031.022-.021A20.024,20.024,0,0,0,191.611,155.539Zm-36.485,0a16.418,16.418,0,1,1,28.627,10.936,12.722,12.722,0,0,0-5.87-7.4,7.2,7.2,0,0,0,.958-3.541v-7.3a7.3,7.3,0,0,0-14.594,0v7.3a7.2,7.2,0,0,0,.958,3.541,12.722,12.722,0,0,0-5.87,7.4A16.33,16.33,0,0,1,155.127,155.539Zm20.066-6.6-1.009-.505a1.825,1.825,0,0,0-1.259-.137l-5.029,1.258v-1.312a3.648,3.648,0,0,1,7.3,0Zm-7.3,6.6v-2.224L173.157,152l2.036,1.018v2.521a3.648,3.648,0,0,1-7.3,0Zm-5.4,13.682a9.066,9.066,0,0,1,5.382-7.414,7.072,7.072,0,0,0,7.329,0,9.066,9.066,0,0,1,5.382,7.414A16.348,16.348,0,0,1,162.5,169.221Zm0,0" transform="translate(-116.818 -104.461)"/><path d="M103.981,14.594h-42a9.031,9.031,0,0,0,1.871-5.473,9.121,9.121,0,1,0-16.371,5.473h-42A5.473,5.473,0,0,0,0,20.066v67.5a5.473,5.473,0,0,0,5.473,5.473H34.66v2.414l-7.976,3.188a1.825,1.825,0,0,0-1.145,1.7v5.473a1.824,1.824,0,0,0,1.824,1.824H82.09a1.824,1.824,0,0,0,1.824-1.824v-5.473a1.825,1.825,0,0,0-1.145-1.7l-7.976-3.188V93.035h29.188a5.473,5.473,0,0,0,5.473-5.473v-67.5A5.473,5.473,0,0,0,103.981,14.594ZM93.948,34.66A4.561,4.561,0,1,1,98.508,30.1,4.56,4.56,0,0,1,93.948,34.66ZM89.22,36.787a8.108,8.108,0,0,0,9.456,0,9.184,9.184,0,0,1,5.511,3.862,9.368,9.368,0,0,1,1.618,4.956H82.09a9.418,9.418,0,0,1,5.931-8.444A9.885,9.885,0,0,1,89.22,36.787ZM93.948,67.5a4.561,4.561,0,1,1,4.561-4.561A4.56,4.56,0,0,1,93.948,67.5ZM89.22,69.623a8.108,8.108,0,0,0,9.456,0,9.184,9.184,0,0,1,5.511,3.862,9.368,9.368,0,0,1,1.618,4.956H82.09A9.418,9.418,0,0,1,88.021,70,9.884,9.884,0,0,1,89.22,69.623Zm16.585.106a13.142,13.142,0,0,0-4.561-3.1,8.112,8.112,0,0,0,.912-3.692,8.209,8.209,0,0,0-16.418,0,8.1,8.1,0,0,0,.912,3.685,13.1,13.1,0,0,0-4.561,3.1V49.254h23.715Zm-1.824-51.487a1.824,1.824,0,0,1,1.824,1.824V36.893a13.142,13.142,0,0,0-4.561-3.1,8.112,8.112,0,0,0,.912-3.692,8.209,8.209,0,0,0-16.418,0,8.1,8.1,0,0,0,.912,3.685,13.1,13.1,0,0,0-4.561,3.1V18.242Zm-42.469,0L60.6,21.891H48.854l-.912-3.648ZM49.254,9.121a5.473,5.473,0,1,1,5.473,5.473A5.473,5.473,0,0,1,49.254,9.121ZM3.648,20.066a1.824,1.824,0,0,1,1.824-1.824H44.181l1.479,5.916a1.825,1.825,0,0,0,1.77,1.381H62.024a1.825,1.825,0,0,0,1.77-1.381l1.479-5.916h13.17v60.2H3.648ZM72.29,98.379l7.976,3.188v2.414H29.188v-2.414l7.976-3.188a1.825,1.825,0,0,0,1.145-1.7V93.035H71.145v3.648A1.825,1.825,0,0,0,72.29,98.379Zm31.691-8.992H5.473a1.824,1.824,0,0,1-1.824-1.824V82.09H105.805v5.473A1.824,1.824,0,0,1,103.981,89.387Zm0,0"/><path d="M230.736,28a2.736,2.736,0,1,0,2.736,2.736A2.736,2.736,0,0,0,230.736,28Zm0,3.648a.912.912,0,1,1,.912-.912A.912.912,0,0,1,230.736,31.648Zm0,0" transform="translate(-176.01 -21.615)"/></svg>