<svg xmlns="http://www.w3.org/2000/svg" width="100.353" height="100.355" viewBox="0 0 100.353 100.355"><g transform="translate(-2.002 -2.001)"><g transform="translate(2.002 2.001)"><circle cx="2" cy="2" r="2" transform="translate(49.506 61.356)"/><circle cx="2" cy="2" r="2" transform="translate(56.506 61.356)"/><ellipse cx="1.5" cy="2" rx="1.5" ry="2" transform="translate(63.506 61.356)"/><circle cx="2" cy="2" r="2" transform="translate(49.506 48.356)"/><circle cx="2" cy="2" r="2" transform="translate(56.506 48.356)"/><ellipse cx="1.5" cy="2" rx="1.5" ry="2" transform="translate(63.506 48.356)"/><path d="M22.673,34.345H32.708a1.673,1.673,0,1,0,0-3.345H22.673a1.673,1.673,0,1,0,0,3.345Z" transform="translate(10.777 17.504)"/><ellipse cx="2" cy="1.5" rx="2" ry="1.5" transform="translate(49.506 35.356)"/><ellipse cx="2" cy="1.5" rx="2" ry="1.5" transform="translate(56.506 35.356)"/><circle cx="1.5" cy="1.5" r="1.5" transform="translate(63.506 35.356)"/><path d="M32.708,23H22.673a1.673,1.673,0,1,0,0,3.345H32.708a1.673,1.673,0,1,0,0-3.345Z" transform="translate(10.777 12.123)"/><path d="M98.991,87.329c.074-5.342-2.064-12.187-6.117-19.836A43.433,43.433,0,0,0,85.26,23.967a1.673,1.673,0,0,0-2.544,2.174,40.068,40.068,0,0,1,7.948,37.425,120.921,120.921,0,0,0-7.209-10.72,1.673,1.673,0,1,0-2.676,2.007,112.127,112.127,0,0,1,8.4,12.879A40.379,40.379,0,0,1,67.733,89.186,128.078,128.078,0,0,1,46.409,73.922H75.594a1.673,1.673,0,0,0,1.673-1.673v-1.98a4.988,4.988,0,0,0,0-9.42V32.106a1.673,1.673,0,0,0-1.673-1.673H62.983A137.447,137.447,0,0,0,40.749,13.708a40.078,40.078,0,0,1,25.257.788,8.241,8.241,0,0,0-.447,2.557,8.457,8.457,0,1,0,2.114-5.5,43.383,43.383,0,0,0-30.86-.05c-7.574-4-14.426-6.172-19.772-6.12A8.336,8.336,0,1,0,5.384,17.043c-.074,5.393,2.1,12.249,6.1,19.809A43.438,43.438,0,0,0,22.024,83.492a1.673,1.673,0,1,0,2.32-2.412A40.081,40.081,0,0,1,13.7,40.77,132.923,132.923,0,0,0,27.088,59.2V72.249a1.673,1.673,0,0,0,1.673,1.673h6.69a1.673,1.673,0,1,0,0-3.345H30.433v-7.6c1.718,1.882,3.484,3.757,5.336,5.61a145.612,145.612,0,0,0,27.8,22.079,39.808,39.808,0,0,1-21.685.291A8.437,8.437,0,1,0,40.4,94.018a43.185,43.185,0,0,0,27.1-1.152c7.441,3.941,14.222,6.145,19.575,6.145.089,0,.167,0,.263-.008A8.335,8.335,0,1,0,98.991,87.331ZM73.922,12.035A5.018,5.018,0,1,1,68.9,17.053,5.018,5.018,0,0,1,73.922,12.035ZM42.682,70.577q-1.763-1.634-3.513-3.345h6.317a1.673,1.673,0,0,0,0-3.345H35.868q-1.6-1.663-3.126-3.345h41.18v.308a4.988,4.988,0,0,0,0,9.42v.308ZM73.922,57.2H30.433V47.16H73.922Zm1.673,10.036a1.673,1.673,0,1,1,1.673-1.673A1.673,1.673,0,0,1,75.594,67.231ZM10.362,5.344a5,5,0,0,1,4.28,2.437c.01.022.023.04.033.062a4.953,4.953,0,0,1,.7,2.519,5.018,5.018,0,0,1-5.018,5.018,4.968,4.968,0,0,1-2.524-.706l-.05-.028a5,5,0,0,1,2.574-9.3ZM8.738,18.558a8.335,8.335,0,0,0,9.82-9.8,41.041,41.041,0,0,1,14.284,4.483A43.761,43.761,0,0,0,13.224,32.874,40.738,40.738,0,0,1,8.738,18.558ZM36.6,15.184A127.134,127.134,0,0,1,57.963,30.434H53.85a1.673,1.673,0,1,0,0,3.345H73.922V43.815H30.433V33.779H47.16a1.673,1.673,0,0,0,0-3.345h-18.4a1.673,1.673,0,0,0-1.673,1.673V53.959a121.767,121.767,0,0,1-11.911-17.35A40.375,40.375,0,0,1,36.6,15.184ZM33.779,93.993A5.018,5.018,0,1,1,38.8,88.975,5.018,5.018,0,0,1,33.779,93.993ZM71.459,91.15A43.769,43.769,0,0,0,91.136,71.48,41.009,41.009,0,0,1,95.6,85.8a8.341,8.341,0,0,0-9.8,9.827A40.478,40.478,0,0,1,71.459,91.15Zm22.534,7.861a5.006,5.006,0,0,1-4.277-2.429l-.037-.069a4.954,4.954,0,0,1-.7-2.521,5.018,5.018,0,0,1,5.018-5.018,4.968,4.968,0,0,1,2.524.706l.05.028a5,5,0,0,1-2.574,9.3Z" transform="translate(-2.002 -2.001)"/><path d="M60.018,17.036A5.018,5.018,0,1,0,55,12.018,5.018,5.018,0,0,0,60.018,17.036Zm0-6.69a1.673,1.673,0,1,1-1.673,1.673A1.673,1.673,0,0,1,60.018,10.345Z" transform="translate(33.646 1.361)"/><path d="M9.018,49a5.018,5.018,0,1,0,5.018,5.018A5.018,5.018,0,0,0,9.018,49Zm0,6.69a1.673,1.673,0,1,1,1.673-1.673A1.673,1.673,0,0,1,9.018,55.69Z" transform="translate(-0.657 29.611)"/></g></g></svg>