<svg xmlns="http://www.w3.org/2000/svg" width="99.634" height="87.82" viewBox="0 0 99.634 87.82"><defs><style>.a{fill:#497bfa;}</style></defs><g transform="translate(-23.981 -47.953)"><path class="a" d="M118.968,105.714V84.772a6.753,6.753,0,1,0-5.378-12.324L99.17,57.9a6.753,6.753,0,1,0-12.368-5.3H60.794a6.753,6.753,0,1,0-12.453,5.129L33.757,72.317a6.753,6.753,0,1,0-4.918,12.52v8.992a6.753,6.753,0,1,0,5.417,12.244l2.506,2.594a6.753,6.753,0,1,0,12.329,5.181l19.044.088a6.754,6.754,0,0,0,8.823,4.538l4.322,6.215a6.752,6.752,0,1,0,11.69,6.132h12.315a6.753,6.753,0,1,0,10.174-7.474l1.459-4.466a6.753,6.753,0,0,0,2.05-13.167ZM86.462,122.26a6.718,6.718,0,0,0-2.44.458l-4.285-6.162a6.745,6.745,0,0,0,1.4-2.58l29.236.042c.013.046.026.092.04.137L91.457,124.472a6.738,6.738,0,0,0-4.994-2.212ZM70.5,106.8,57.187,96.265a6.713,6.713,0,0,0,.285-.771h12.39a6.784,6.784,0,0,0,4.191,4.418l-.467,5.546A6.722,6.722,0,0,0,70.5,106.8Zm-27.943-1.423a6.712,6.712,0,0,0-3.394.919l-2.557-2.647a6.71,6.71,0,0,0,.885-3.337,6.792,6.792,0,0,0-.043-.757l7.922-2.272a6.813,6.813,0,0,0,1.6,1.689L43.8,105.49A6.763,6.763,0,0,0,42.559,105.374Zm-7.48-21.847,9.7,7.392a6.718,6.718,0,0,0-.535,2.635c0,.178.009.353.023.528l-8.037,2.306a6.768,6.768,0,0,0-4.017-2.668V84.947a6.735,6.735,0,0,0,2.863-1.419Zm19.3-22.056a6.762,6.762,0,0,0,1.248-.118l3.1,6.572a6.758,6.758,0,0,0-2.584,4.367l-19.4,2.98a6.77,6.77,0,0,0-.436-.73L50.565,60.287a6.715,6.715,0,0,0,3.814,1.184ZM69.441,74.642h8.715a6.764,6.764,0,0,0,2.535,4.024l-3.388,8.2a6.732,6.732,0,0,0-3.251.326l-6.084-9.536A6.735,6.735,0,0,0,69.441,74.642ZM93.217,61.471a6.712,6.712,0,0,0,3.662-1.083l14.258,14.383a6.715,6.715,0,0,0-.492.934l-19.18-3.325a6.753,6.753,0,0,0-2.517-4.394l2.968-6.642A6.741,6.741,0,0,0,93.217,61.471ZM110.27,110.64,81.22,110.6a6.7,6.7,0,0,0-.249-.83l14.838-10.9a6.733,6.733,0,0,0,7.168.733l8.262,8.784A6.72,6.72,0,0,0,110.27,110.64ZM82.93,92.117a6.765,6.765,0,0,0-2.515-3.938l3.388-8.2a6.781,6.781,0,0,0,.971.071,6.712,6.712,0,0,0,2.71-.57l7.144,9.955a6.727,6.727,0,0,0-1.255,2.686Zm-6.6,4.815a3.377,3.377,0,1,1,3.377-3.377A3.377,3.377,0,0,1,76.331,96.932Zm-6.6-4.815H57.6a6.743,6.743,0,0,0-1.63-3.132l5.105-9.169a6.739,6.739,0,0,0,4.13-.206L71.259,89.1A6.738,6.738,0,0,0,69.732,92.117ZM46.84,88.241l-9.8-7.463a6.713,6.713,0,0,0,.445-2.2L56.5,75.655a6.774,6.774,0,0,0,1.642,2.5L53.13,87.145a6.731,6.731,0,0,0-6.29,1.1Zm56.508,5.314a3.377,3.377,0,1,1-3.377-3.377,3.377,3.377,0,0,1,3.377,3.377Zm.522-5.509a6.733,6.733,0,0,0-6.576-.69l-7.153-9.97a6.748,6.748,0,0,0,.927-1.646l19.07,3.305a6.705,6.705,0,0,0,.9,2.736ZM88.151,73.291a3.377,3.377,0,1,1-3.377-3.377A3.377,3.377,0,0,1,88.151,73.291ZM62.822,76.669A3.377,3.377,0,1,1,66.2,73.291,3.377,3.377,0,0,1,62.822,76.669Zm-15.2,16.886A3.377,3.377,0,1,1,51,96.932,3.377,3.377,0,0,1,47.625,93.554Zm29.791,6.666A6.775,6.775,0,0,0,82.8,95.494H93.5a6.7,6.7,0,0,0,.249.693L79.033,107a6.761,6.761,0,0,0-2.085-1.222Zm36.34,5.91-8.227-8.746a6.739,6.739,0,0,0,.525-6.765l7.376-6.446a6.712,6.712,0,0,0,2.16.817v20.5a6.7,6.7,0,0,0-1.834.636Zm6.478-27.773a3.377,3.377,0,1,1-3.377-3.377A3.377,3.377,0,0,1,120.234,78.357ZM93.217,51.34a3.377,3.377,0,1,1-3.377,3.377A3.377,3.377,0,0,1,93.217,51.34Zm-32.2,4.644h25.57a6.757,6.757,0,0,0,2.287,3.9l-3.013,6.744a6.75,6.75,0,0,0-7.527,4.64H69.266a6.752,6.752,0,0,0-7.426-4.656l-3.155-6.691A6.758,6.758,0,0,0,61.013,55.983ZM54.379,51.34A3.377,3.377,0,1,1,51,54.717,3.377,3.377,0,0,1,54.379,51.34ZM27.362,78.357a3.377,3.377,0,1,1,3.377,3.377A3.377,3.377,0,0,1,27.362,78.357Zm3.377,25.329a3.377,3.377,0,1,1,3.377-3.377,3.377,3.377,0,0,1-3.377,3.377Zm11.82,11.82a3.377,3.377,0,1,1,3.377-3.377A3.377,3.377,0,0,1,42.559,115.506Zm4.3-8.582,3.243-6.677a6.8,6.8,0,0,0,.9.062,6.718,6.718,0,0,0,4.1-1.389l13.336,10.55a6.719,6.719,0,0,0-.36,1.089l-18.967-.087A6.766,6.766,0,0,0,46.859,106.924Zm24.406,5.2a3.377,3.377,0,1,1,3.377,3.377,3.377,3.377,0,0,1-3.377-3.377Zm15.2,20.263a3.377,3.377,0,1,1,3.377-3.377,3.377,3.377,0,0,1-3.377,3.377Zm25.329,0a3.377,3.377,0,1,1,3.377-3.377A3.377,3.377,0,0,1,111.791,132.392Zm0-10.132a6.765,6.765,0,0,0-6.568,5.184H93.061l19.148-10.422a6.794,6.794,0,0,0,1.423,1.04l-1.377,4.216C112.1,122.267,111.947,122.26,111.791,122.26Zm5.066-6.754a3.377,3.377,0,1,1,3.377-3.377A3.377,3.377,0,0,1,116.857,115.506Z" transform="translate(0 0)"/></g></svg>