<svg xmlns="http://www.w3.org/2000/svg" width="240.886" height="66.451" viewBox="0 0 240.886 66.451"><defs><style>.a{fill:#fff;fill-rule:evenodd;}</style></defs><path class="a" d="M24.029,28.615H12.881L10.761,35H4L15.488,4H21.38L32.931,35H26.17ZM14.6,23.441h7.715l-3.879-11.6Z" transform="translate(12.613 12.613)"/><path class="a" d="M18.359,35H12V4h6.359Z" transform="translate(37.839 12.613)"/><path class="a" d="M3.738,66.451H0V0H12.747V6.922H7.476V59.529h5.271v6.922Z"/><path class="a" d="M25.457,66.451h4.01V0H14.931V6.922h8.306V59.529H14.931v6.922Z" transform="translate(47.08)"/><path class="a" d="M35.029,17.622H25.973l-2.034,5.793H21l8.254-22.2h2.494l8.269,22.2H37.093Zm-8.195-2.409h7.349L30.5,4.832Zm18.26-8.293.089,2.073a5.8,5.8,0,0,1,4.81-2.378q5.092,0,5.137,5.9v10.9H52.384V12.5a3.865,3.865,0,0,0-.794-2.637,3.134,3.134,0,0,0-2.427-.854,3.891,3.891,0,0,0-2.346.732,4.938,4.938,0,0,0-1.574,1.921V23.415H42.5V6.921ZM69.189,23.415a6.057,6.057,0,0,1-.386-1.738,6.054,6.054,0,0,1-4.573,2.043,5.579,5.579,0,0,1-3.9-1.38,4.517,4.517,0,0,1-1.522-3.5,4.706,4.706,0,0,1,1.908-4,8.818,8.818,0,0,1,5.367-1.425h2.672v-1.3A3.215,3.215,0,0,0,67.9,9.764a3.406,3.406,0,0,0-2.539-.877,3.932,3.932,0,0,0-2.464.762,2.262,2.262,0,0,0-.995,1.845H59.139a3.956,3.956,0,0,1,.854-2.386,5.848,5.848,0,0,1,2.316-1.822,7.617,7.617,0,0,1,3.214-.671,6.243,6.243,0,0,1,4.35,1.425,5.206,5.206,0,0,1,1.633,3.925v7.592a9.505,9.505,0,0,0,.564,3.613v.244Zm-4.558-2.149a4.731,4.731,0,0,0,2.45-.686A4.1,4.1,0,0,0,68.759,18.8V15.412H66.606q-5.048,0-5.048,3.034a2.6,2.6,0,0,0,.861,2.073A3.254,3.254,0,0,0,64.632,21.266Zm14.163,2.149H76.048V0h2.746Zm9.65-4.131L92.186,6.921h2.939l-6.458,19.04q-1.5,4.116-4.765,4.116l-.52-.046-1.024-.2V27.546l.742.061a3.583,3.583,0,0,0,2.175-.579,4.206,4.206,0,0,0,1.284-2.119l.609-1.677L81.437,6.921h3ZM101.3,2.927V6.921h3V9.1h-3V19.33a2.329,2.329,0,0,0,.4,1.486,1.664,1.664,0,0,0,1.366.5,6.485,6.485,0,0,0,1.306-.183v2.287a7.768,7.768,0,0,1-2.108.3,3.377,3.377,0,0,1-2.776-1.143,5,5,0,0,1-.935-3.247V9.1H95.63V6.921h2.925V2.927Zm9.19,20.488h-2.746V6.921h2.746ZM107.521,2.546a1.71,1.71,0,0,1,.408-1.159,1.512,1.512,0,0,1,1.21-.473,1.535,1.535,0,0,1,1.217.473,1.692,1.692,0,0,1,.416,1.159,1.636,1.636,0,0,1-.416,1.143,1.562,1.562,0,0,1-1.217.457,1.538,1.538,0,0,1-1.21-.457A1.653,1.653,0,0,1,107.521,2.546Zm13.807,18.872A3.892,3.892,0,0,0,123.9,20.5a3.242,3.242,0,0,0,1.217-2.287h2.6a5.2,5.2,0,0,1-.95,2.7,6.306,6.306,0,0,1-2.338,2.043,6.6,6.6,0,0,1-3.1.762,6.536,6.536,0,0,1-5.218-2.249,9.112,9.112,0,0,1-1.937-6.151v-.473a10.158,10.158,0,0,1,.861-4.284,6.683,6.683,0,0,1,2.472-2.912,6.882,6.882,0,0,1,3.808-1.037A6.343,6.343,0,0,1,125.8,8.278a6.008,6.008,0,0,1,1.908,4.314h-2.6a3.931,3.931,0,0,0-1.18-2.63,3.619,3.619,0,0,0-2.62-1.029,3.806,3.806,0,0,0-3.244,1.547,7.412,7.412,0,0,0-1.151,4.474v.534a7.264,7.264,0,0,0,1.143,4.39A3.824,3.824,0,0,0,121.328,21.418Zm18.824-2.378a2.1,2.1,0,0,0-.839-1.776,7.945,7.945,0,0,0-2.925-1.09,13.575,13.575,0,0,1-3.311-1.1,4.741,4.741,0,0,1-1.811-1.524,3.718,3.718,0,0,1-.586-2.1,4.319,4.319,0,0,1,1.67-3.43,6.41,6.41,0,0,1,4.268-1.4,6.6,6.6,0,0,1,4.431,1.448,4.649,4.649,0,0,1,1.7,3.7h-2.761a2.571,2.571,0,0,0-.958-2,3.529,3.529,0,0,0-2.412-.838,3.684,3.684,0,0,0-2.346.671,2.131,2.131,0,0,0-.846,1.753,1.723,1.723,0,0,0,.787,1.54,9.515,9.515,0,0,0,2.843.991,14.546,14.546,0,0,1,3.333,1.128,4.892,4.892,0,0,1,1.893,1.578,3.956,3.956,0,0,1,.616,2.249,4.26,4.26,0,0,1-1.722,3.544,7.09,7.09,0,0,1-4.469,1.334,7.907,7.907,0,0,1-3.415-.7,5.589,5.589,0,0,1-2.323-1.959,4.809,4.809,0,0,1-.839-2.721h2.746a2.946,2.946,0,0,0,1.106,2.249,4.213,4.213,0,0,0,2.724.831,4.34,4.34,0,0,0,2.5-.648A2,2,0,0,0,140.152,19.04Zm-114,40.917H23.3v-22.2h2.85ZM33.53,43.463l.089,2.073a5.8,5.8,0,0,1,4.81-2.378q5.092,0,5.137,5.9v10.9H40.819V49.042a3.865,3.865,0,0,0-.794-2.637,3.134,3.134,0,0,0-2.427-.854,3.892,3.892,0,0,0-2.346.732A4.938,4.938,0,0,0,33.678,48.2V59.957H30.932V43.463Zm17.9-3.994v3.994h3v2.18h-3V55.872a2.329,2.329,0,0,0,.4,1.486,1.664,1.664,0,0,0,1.366.5,6.486,6.486,0,0,0,1.306-.183v2.287a7.768,7.768,0,0,1-2.108.3,3.377,3.377,0,0,1-2.776-1.143,5,5,0,0,1-.935-3.247V45.643H45.763v-2.18h2.925V39.469ZM64.305,60.262a6.926,6.926,0,0,1-5.315-2.2,8.306,8.306,0,0,1-2.049-5.892v-.518a10.122,10.122,0,0,1,.913-4.383,7.259,7.259,0,0,1,2.553-3.018,6.3,6.3,0,0,1,3.556-1.09,5.945,5.945,0,0,1,4.869,2.119,9.346,9.346,0,0,1,1.737,6.067v1.174H59.688a5.957,5.957,0,0,0,1.388,3.941,4.312,4.312,0,0,0,3.377,1.5,4.684,4.684,0,0,0,2.464-.61,6.249,6.249,0,0,0,1.767-1.616l1.678,1.342A6.7,6.7,0,0,1,64.305,60.262Zm-.341-14.787a3.62,3.62,0,0,0-2.791,1.242,6.123,6.123,0,0,0-1.4,3.483h8.046v-.213A5.461,5.461,0,0,0,66.7,46.657,3.407,3.407,0,0,0,63.964,45.475ZM76.731,59.957H73.985V36.542h2.746Zm7.378,0H81.363V36.542h2.746Zm7.378,0H88.741V43.463h2.746ZM88.519,39.088a1.711,1.711,0,0,1,.408-1.159,1.512,1.512,0,0,1,1.21-.473,1.535,1.535,0,0,1,1.217.473,1.692,1.692,0,0,1,.416,1.159,1.636,1.636,0,0,1-.416,1.143,1.562,1.562,0,0,1-1.217.457,1.538,1.538,0,0,1-1.21-.457A1.653,1.653,0,0,1,88.519,39.088Zm6.71,12.485a9.878,9.878,0,0,1,1.737-6.136,5.889,5.889,0,0,1,9.19-.145l.134-1.829H108.8v16.1a6.81,6.81,0,0,1-1.848,5.046,6.718,6.718,0,0,1-4.966,1.845,8.08,8.08,0,0,1-3.4-.762A5.885,5.885,0,0,1,96.046,63.6l1.425-1.692a5.325,5.325,0,0,0,4.32,2.241,4.145,4.145,0,0,0,3.125-1.159,4.5,4.5,0,0,0,1.121-3.262V58.311a5.577,5.577,0,0,1-4.5,1.951,5.44,5.44,0,0,1-4.565-2.332A10.39,10.39,0,0,1,95.229,51.573Zm2.761.32A7.546,7.546,0,0,0,99.1,56.276a3.588,3.588,0,0,0,3.118,1.593,4.014,4.014,0,0,0,3.815-2.424V47.914a4.058,4.058,0,0,0-3.786-2.363,3.62,3.62,0,0,0-3.132,1.6A8.223,8.223,0,0,0,97.99,51.893Zm21.615,8.369a6.926,6.926,0,0,1-5.315-2.2,8.306,8.306,0,0,1-2.049-5.892v-.518a10.122,10.122,0,0,1,.913-4.383,7.259,7.259,0,0,1,2.553-3.018,6.3,6.3,0,0,1,3.556-1.09,5.945,5.945,0,0,1,4.869,2.119,9.346,9.346,0,0,1,1.737,6.067v1.174H114.989a5.957,5.957,0,0,0,1.388,3.941,4.312,4.312,0,0,0,3.377,1.5,4.684,4.684,0,0,0,2.464-.61,6.249,6.249,0,0,0,1.767-1.616l1.678,1.342A6.7,6.7,0,0,1,119.606,60.262Zm-.341-14.787a3.62,3.62,0,0,0-2.791,1.242,6.123,6.123,0,0,0-1.4,3.483h8.046v-.213A5.461,5.461,0,0,0,122,46.657,3.407,3.407,0,0,0,119.264,45.475Zm12.381-2.012.089,2.073a5.8,5.8,0,0,1,4.81-2.378q5.092,0,5.137,5.9v10.9h-2.746V49.042a3.865,3.865,0,0,0-.794-2.637,3.134,3.134,0,0,0-2.427-.854,3.892,3.892,0,0,0-2.346.732,4.938,4.938,0,0,0-1.574,1.921V59.957h-2.746V43.463Zm20.621,14.5a3.892,3.892,0,0,0,2.568-.915,3.242,3.242,0,0,0,1.217-2.287h2.6a5.2,5.2,0,0,1-.95,2.7,6.306,6.306,0,0,1-2.338,2.043,6.6,6.6,0,0,1-3.1.762,6.536,6.536,0,0,1-5.218-2.249,9.112,9.112,0,0,1-1.937-6.151V51.39a10.158,10.158,0,0,1,.861-4.284,6.683,6.683,0,0,1,2.472-2.912,6.882,6.882,0,0,1,3.808-1.037,6.343,6.343,0,0,1,4.491,1.662,6.008,6.008,0,0,1,1.908,4.314h-2.6a3.932,3.932,0,0,0-1.18-2.63,3.619,3.619,0,0,0-2.62-1.029,3.806,3.806,0,0,0-3.244,1.547,7.412,7.412,0,0,0-1.151,4.474v.534A7.264,7.264,0,0,0,149,56.421,3.824,3.824,0,0,0,152.267,57.96Zm16.137,2.3a6.926,6.926,0,0,1-5.315-2.2,8.306,8.306,0,0,1-2.049-5.892v-.518a10.122,10.122,0,0,1,.913-4.383,7.259,7.259,0,0,1,2.553-3.018,6.3,6.3,0,0,1,3.556-1.09,5.945,5.945,0,0,1,4.869,2.119,9.346,9.346,0,0,1,1.737,6.067v1.174H163.787a5.957,5.957,0,0,0,1.388,3.941,4.312,4.312,0,0,0,3.377,1.5,4.684,4.684,0,0,0,2.464-.61,6.25,6.25,0,0,0,1.767-1.616l1.678,1.342A6.7,6.7,0,0,1,168.4,60.262Zm-.341-14.787a3.62,3.62,0,0,0-2.791,1.242,6.123,6.123,0,0,0-1.4,3.483h8.046v-.213a5.461,5.461,0,0,0-1.128-3.331A3.407,3.407,0,0,0,168.062,45.475Z" transform="translate(66.217)"/></svg>