<svg xmlns="http://www.w3.org/2000/svg" width="100.786" height="100.859" viewBox="0 0 100.786 100.859"><defs><style>.a{opacity:0.387;}.b{fill:#fff;}</style></defs><g class="a" transform="translate(-0.186 0)"><g transform="translate(40.501 0)"><g transform="translate(0 0)"><path class="b" d="M221.5,4.558A7.669,7.669,0,0,0,216.668.229a7.128,7.128,0,0,0-8.16,3.716,35.206,35.206,0,0,0-3.67,15.8V72.3a1.684,1.684,0,0,0,.03.318l4.522,23.43a5.6,5.6,0,0,0,5.521,4.808h.008a5.572,5.572,0,0,0,5.508-4.72l4.535-23.517a1.553,1.553,0,0,0,.032-.318V19.74A35.187,35.187,0,0,0,221.5,4.558Zm.133,67.583-4.519,23.447A2.223,2.223,0,0,1,212.7,95.5L208.2,72.143V19.735a31.852,31.852,0,0,1,3.319-14.3,3.748,3.748,0,0,1,4.226-1.982,4.33,4.33,0,0,1,2.7,2.489,31.946,31.946,0,0,1,3.19,13.8Z" transform="translate(-204.836 0)"/></g></g><g transform="translate(0.186 37.026)"><g transform="translate(0)"><path class="b" d="M43.041,188.2a1.677,1.677,0,0,0-1.66-.034L1.066,210a1.679,1.679,0,0,0-.88,1.476v10.079a1.682,1.682,0,0,0,2.27,1.574l40.315-15.118a1.683,1.683,0,0,0,1.09-1.574v-16.8A1.681,1.681,0,0,0,43.041,188.2ZM40.5,205.274,3.546,219.132v-6.654L40.5,192.462Z" transform="translate(-0.186 -187.96)"/></g></g><g transform="translate(57.299 37.027)"><path class="b" d="M332.905,210,292.59,188.167a1.679,1.679,0,0,0-2.479,1.477v16.8a1.68,1.68,0,0,0,1.089,1.574l40.315,15.118a1.724,1.724,0,0,0,.591.106,1.658,1.658,0,0,0,.954-.3,1.68,1.68,0,0,0,.724-1.381V211.481A1.681,1.681,0,0,0,332.905,210Zm-2.479,9.131-36.956-13.858V192.463l36.956,20.018Z" transform="translate(-290.111 -187.964)"/></g><g transform="translate(22.023 38.708)"><path class="b" d="M116.078,196.5a5.046,5.046,0,0,0-5.039,5.039v5.039h3.36v-5.039a1.68,1.68,0,1,1,3.359,0v1.68h3.36v-1.68A5.045,5.045,0,0,0,116.078,196.5Z" transform="translate(-111.039 -196.497)"/></g><g transform="translate(6.905 47.105)"><path class="b" d="M39.333,239.124a5.046,5.046,0,0,0-5.039,5.039V249.2h3.36v-5.039a1.68,1.68,0,0,1,3.36,0h3.36A5.045,5.045,0,0,0,39.333,239.124Z" transform="translate(-34.294 -239.124)"/></g><g transform="translate(69.057 38.708)"><path class="b" d="M354.84,196.5a5.046,5.046,0,0,0-5.039,5.039v1.68h3.359v-1.68a1.68,1.68,0,1,1,3.36,0v5.039h3.359v-5.039A5.045,5.045,0,0,0,354.84,196.5Z" transform="translate(-349.801 -196.497)"/></g><g transform="translate(84.176 47.105)"><path class="b" d="M431.585,239.124a5.046,5.046,0,0,0-5.039,5.039h3.36a1.68,1.68,0,0,1,3.36,0V249.2h3.359v-5.039A5.045,5.045,0,0,0,431.585,239.124Z" transform="translate(-426.546 -239.124)"/></g><g transform="translate(25.383 80.941)"><path class="b" d="M149.652,424.11l-18.2,3.034v-3.785l15.983-9.59-1.729-2.881-16.8,10.079a1.675,1.675,0,0,0-.815,1.44v6.719a1.681,1.681,0,0,0,1.68,1.68,1.892,1.892,0,0,0,.274-.022l20.158-3.359Z" transform="translate(-128.094 -410.888)"/></g><g transform="translate(53.664 80.941)"><path class="b" d="M292.955,420.967l-16.8-10.079-1.728,2.881,15.983,9.59v3.783l-18.2-3.034-.551,3.314,20.158,3.36a1.691,1.691,0,0,0,.275.023,1.681,1.681,0,0,0,1.678-1.68v-6.719A1.68,1.68,0,0,0,292.955,420.967Z" transform="translate(-271.659 -410.888)"/></g><g transform="translate(45.628 10.15)"><path class="b" d="M239.623,54.268a4.105,4.105,0,0,0-3.827-2.743,3.963,3.963,0,0,0-3.791,2.819l-1.142,3.36,3.182,1.082,1.164-3.43a.646.646,0,0,1,.608-.47.654.654,0,0,1,.62.443l1.142,3.444,3.188-1.057Z" transform="translate(-230.863 -51.525)"/></g></g></svg>