<svg xmlns="http://www.w3.org/2000/svg" width="121.104" height="121.105" viewBox="0 0 121.104 121.105"><defs><style>.a{fill:#497bfa;}</style></defs><g transform="translate(-2 -2)"><path d="M104.535,71.934a6.106,6.106,0,0,0-5.349-.969L84.755,75.224V57.26H90.81a1.992,1.992,0,0,0,1.857-1.251,2.018,2.018,0,0,0-.424-2.2L78.114,39.68a2.035,2.035,0,0,0-2.866,0L61.119,53.809a2.018,2.018,0,0,0-.424,2.2,1.992,1.992,0,0,0,1.857,1.251h6.055v22.2H55L44.1,73.408h16.43a6.073,6.073,0,0,0,6.055-6.055V66.343a6.086,6.086,0,0,0-4.34-5.813L50.442,57.058v-9.89H56.5a1.992,1.992,0,0,0,1.857-1.251,2.018,2.018,0,0,0-.424-2.2L43.8,29.588a2.035,2.035,0,0,0-2.866,0L26.806,43.717a2.018,2.018,0,0,0-.424,2.2,1.992,1.992,0,0,0,1.857,1.251h6.055v5.147l-3.472-1.029a1.742,1.742,0,0,0-.565-.081H18.147V47.168a2.018,2.018,0,0,0-2.018-2.018H4.018A2.018,2.018,0,0,0,2,47.168V91.573a2.018,2.018,0,0,0,2.018,2.018h12.11a2.018,2.018,0,0,0,2.018-2.018v-3.25L39.7,95.509a2.391,2.391,0,0,0,.646.1H70.626a1.854,1.854,0,0,0,.666-.121L102.92,84.327a6.055,6.055,0,0,0,4.037-5.712V76.778a6.023,6.023,0,0,0-2.422-4.844ZM14.11,89.555H6.037V49.187H14.11ZM67.417,53.223l9.265-9.264,9.264,9.264H82.736a2.018,2.018,0,0,0-2.018,2.018V76.415l-8.074,2.362V55.242a2.018,2.018,0,0,0-2.018-2.018ZM33.1,43.131l9.264-9.265,9.265,9.265H48.423a2.018,2.018,0,0,0-2.018,2.018V55.868l-8.074-2.382V45.15a2.018,2.018,0,0,0-2.018-2.018ZM102.92,78.615a2.018,2.018,0,0,1-1.352,1.917L70.283,91.573H40.673L18.147,84.065V55.242H29.975L61.1,64.405a2.035,2.035,0,0,1,1.453,1.938v1.009a2.018,2.018,0,0,1-2.018,2.018H36.313a2.018,2.018,0,0,0-.989,3.774L53.49,83.237a1.911,1.911,0,0,0,.989.262H70.626a1.742,1.742,0,0,0,.565-.081l29.146-8.578a2.018,2.018,0,0,1,2.584,1.938Z" transform="translate(0 27.495)"/><path class="a" d="M49.276,2A30.276,30.276,0,1,0,79.552,32.276,30.276,30.276,0,0,0,49.276,2ZM75.415,30.258H71.378a22.382,22.382,0,0,0-1.958-7.266l3.492-2.039a26.284,26.284,0,0,1,2.5,9.3ZM64.091,10.639a26.731,26.731,0,0,1,6.822,6.822L67.4,19.479a23.022,23.022,0,0,0-5.329-5.329Zm-12.8-4.5a26.284,26.284,0,0,1,9.3,2.5l-2.039,3.492a22.382,22.382,0,0,0-7.266-1.958Zm-4.037,0v4.037a22.382,22.382,0,0,0-7.266,1.958L37.953,8.641a26.284,26.284,0,0,1,9.3-2.5Zm-12.8,4.5,2.018,3.512a23.022,23.022,0,0,0-5.329,5.329l-3.512-2.018a26.732,26.732,0,0,1,6.822-6.822Zm-8.82,10.314,3.492,2.039a22.382,22.382,0,0,0-1.958,7.266H23.138A26.284,26.284,0,0,1,25.641,20.953Zm-2.5,13.342h4.037a22.382,22.382,0,0,0,1.958,7.266L25.641,43.6a26.284,26.284,0,0,1-2.5-9.3ZM34.461,53.913a26.732,26.732,0,0,1-6.822-6.822l3.512-2.018A23.022,23.022,0,0,0,36.479,50.4Zm12.8,4.5a26.284,26.284,0,0,1-9.3-2.5l2.039-3.492a22.382,22.382,0,0,0,7.266,1.958ZM31.11,32.276A18.166,18.166,0,1,1,49.276,50.442,18.166,18.166,0,0,1,31.11,32.276ZM51.295,58.415V54.378a22.382,22.382,0,0,0,7.266-1.958L60.6,55.912A26.284,26.284,0,0,1,51.295,58.415Zm12.8-4.5L62.073,50.4A23.022,23.022,0,0,0,67.4,45.073l3.512,2.018A26.731,26.731,0,0,1,64.091,53.913ZM72.912,43.6,69.42,41.561a22.382,22.382,0,0,0,1.958-7.266h4.037a26.284,26.284,0,0,1-2.5,9.3Z" transform="translate(17.313)"/><path class="a" d="M35.037,38.258h4.037V34.221a4.037,4.037,0,0,0,4.037-4.037V26.147a4.037,4.037,0,0,0-4.037-4.037H35.037V18.074H43.11V14.037H39.074V10H35.037v4.037A4.037,4.037,0,0,0,31,18.074V22.11a4.037,4.037,0,0,0,4.037,4.037h4.037v4.037H31v4.037h4.037Z" transform="translate(29.534 8.147)"/><path d="M77.7,41.72,63.574,27.591a2.018,2.018,0,0,0-2.854,0L46.591,41.72a2.018,2.018,0,0,0,1.427,3.445h6.055V65.35a2.018,2.018,0,0,0,2.018,2.018H68.2a2.018,2.018,0,0,0,2.018-2.018V45.165h6.055A2.018,2.018,0,0,0,77.7,41.72Zm-9.5-.591a2.018,2.018,0,0,0-2.018,2.018V63.331H58.11V43.147a2.018,2.018,0,0,0-2.018-2.018h-3.2l9.256-9.256L71.4,41.129Z" transform="translate(44.81 25.46)"/><path d="M4.018,37.165h6.055v12.11a2.018,2.018,0,0,0,2.018,2.018H24.2a2.018,2.018,0,0,0,2.018-2.018V37.165h6.055A2.018,2.018,0,0,0,33.7,33.72L19.574,19.591a2.018,2.018,0,0,0-2.854,0L2.591,33.72a2.018,2.018,0,0,0,1.427,3.445ZM18.147,23.872,27.4,33.129H24.2a2.018,2.018,0,0,0-2.018,2.018v12.11H14.11V35.147a2.018,2.018,0,0,0-2.018-2.018h-3.2Z" transform="translate(0 17.313)"/></g></svg>