<svg xmlns="http://www.w3.org/2000/svg" width="107.527" height="107.526" viewBox="0 0 107.527 107.526"><g transform="translate(0 -0.001)"><path d="M93.367,72.534a5.084,5.084,0,1,0-5.084,5.084,5.09,5.09,0,0,0,5.084-5.084Zm-7.018,0a1.934,1.934,0,1,1,1.934,1.934,1.936,1.936,0,0,1-1.934-1.934Zm-24.483,0a5.084,5.084,0,1,0-5.084,5.084,5.09,5.09,0,0,0,5.084-5.084Zm-7.018,0a1.934,1.934,0,1,1,1.934,1.934,1.936,1.936,0,0,1-1.934-1.934Zm46.961,29.9L95.658,98.8A35.02,35.02,0,0,0,73.045,37.543c-1.053-.014-2.108.023-3.155.1q.1-1.316.1-2.648a34.952,34.952,0,0,0-53.4-29.731,1.575,1.575,0,0,0,1.665,2.674A31.82,31.82,0,0,1,66.838,35a32.267,32.267,0,0,1-.267,4.137h0a31.849,31.849,0,0,1-30.959,27.7L8.62,66.839l5-2.958A3.026,3.026,0,0,0,14.066,59a31.777,31.777,0,0,1-1.108-46.932,1.575,1.575,0,0,0-2.183-2.27,34.927,34.927,0,0,0,1.092,51.464L5.717,64.9a2.737,2.737,0,0,0,1.394,5.093h0l28.515-.007h.029A35.008,35.008,0,0,0,69.5,40.832a32.781,32.781,0,0,1,3.5-.139A31.842,31.842,0,0,1,93.458,96.534a3.026,3.026,0,0,0,.448,4.886l5,2.958-26.991-.006a31.8,31.8,0,0,1-31.083-28.79,1.575,1.575,0,0,0-3.136.3A34.948,34.948,0,0,0,71.87,107.521H71.9l28.514.006a2.737,2.737,0,0,0,1.394-5.094ZM34.994,52.545a5.084,5.084,0,1,0,5.084,5.084,5.09,5.09,0,0,0-5.084-5.084Zm0,7.018a1.934,1.934,0,1,1,1.934-1.934A1.936,1.936,0,0,1,34.994,59.563ZM77.616,72.534a5.084,5.084,0,1,0-5.084,5.084,5.09,5.09,0,0,0,5.084-5.084Zm-7.018,0a1.934,1.934,0,1,1,1.934,1.934A1.936,1.936,0,0,1,70.6,72.534ZM46.2,33.369a15.327,15.327,0,0,0,4.226-11.454,15.453,15.453,0,0,0-30.886.816,4.725,4.725,0,0,0,9.451,0,6.084,6.084,0,0,1,.058-.843,6,6,0,1,1,5.945,6.846,4.731,4.731,0,0,0-4.725,4.725V44.677a4.725,4.725,0,1,0,9.451,0V37.439a15.422,15.422,0,0,0,6.481-4.07ZM37.784,34.71a1.575,1.575,0,0,0-1.215,1.533v8.434a1.575,1.575,0,0,1-3.15,0V33.459a1.577,1.577,0,0,1,1.575-1.575,9.158,9.158,0,0,0,9.141-9.642,9.154,9.154,0,0,0-18.205-.79c-.169,1.211.017,2.854-1.664,2.854-1.817,0-1.629-2.053-1.456-3.289A12.3,12.3,0,0,1,47.28,22.079a12.3,12.3,0,0,1-9.5,12.631Z" transform="translate(0 0)"/></g></svg>