<svg xmlns="http://www.w3.org/2000/svg" width="173.304" height="142.025" viewBox="0 0 173.304 142.025"><defs><style>.a{fill:#497bfa;}</style></defs><g transform="translate(0 -0.5)"><path class="a" d="M136.6,216.376l5.124-19.148h1.822V192.15H102.39l-1.334-4.99h-12.2v5.077h8.3l8.183,30.626h.914a7.14,7.14,0,1,0,13.672,0h4.944a7.14,7.14,0,1,0,6.836-5.077H109.239l-.377-1.411ZM117.294,211.3v-4.5h5.633v4.5Zm10.71,0v-4.5h5.9l-1.2,4.5Zm8.463-14.071-1.2,4.5H128v-4.5Zm-13.541,0v4.5h-5.633v-4.5Zm-10.71,0v4.5h-7.262l-1.2-4.5Zm2.935,27.7a2.063,2.063,0,1,1-2.063-2.061A2.065,2.065,0,0,1,115.152,224.925Zm18.614,0a2.063,2.063,0,1,1-2.063-2.061A2.065,2.065,0,0,1,133.766,224.925ZM107.517,211.3l-1.2-4.5h5.9v4.5Zm0,0" transform="translate(-58.777 -123.478)"/><path d="M163.4.5H9.9L0,11.144v32.98L9.88,54H23.235l7.341-7.341L37.917,54H51.273l7.341-7.341L65.954,54H79.31l7.342-7.341L93.993,54h13.356l7.341-7.341L122.03,54h13.356l7.341-7.341L150.068,54h13.356l9.881-9.88V11.144ZM21.133,48.926h-9.15L5.077,42.02V22.845h22.96V42.02Zm28.037,0h-9.15l-6.9-6.906V22.845h22.96V42.02Zm28.037,0H68.059L61.153,42.02V22.845h22.96V42.02Zm28.039,0H96.1L89.191,42.02V22.845h22.96V42.02Zm28.037,0h-9.15l-6.9-6.906V22.845h22.96V42.02Zm34.943-6.906-6.906,6.906h-9.148l-6.906-6.906V22.845h22.96ZM5.077,17.768V13.14l7.037-7.563H161.19l7.037,7.563v4.628Zm0,0"/><path d="M486.48,165.074h5.077v65.017H486.48Zm0,0" transform="translate(-321.814 -108.868)"/><path d="M11,165.555h5.077v64.854H11Zm0,0" transform="translate(-7.274 -109.186)"/><path d="M66.542,169.588H61.465l.016,59.769H134.7l-.017-60.525h-5.077l.016,55.447H66.557Zm0,0" transform="translate(-40.66 -111.354)"/><path d="M152.339,171.066h-5.077v67.218H111.047V171.066H105.97v67.218H0v17.072H173.3V238.285H152.339Zm15.888,72.3v6.916H5.077v-6.916Zm0,0" transform="translate(0 -112.832)"/></g></svg>