<svg xmlns="http://www.w3.org/2000/svg" width="122.123" height="142" viewBox="0 0 122.123 142"><defs><style>.a{fill:none;}.b,.c{stroke:none;}.c{fill:#497bfa;}</style></defs><g transform="translate(-33.21 0)"><g transform="translate(33.21 0)"><g class="a" transform="translate(-70.586 -42.394)"><path class="b" d="M131.649,60.5c-1.392,1.058-20.474,15.255-44.946,20.155-3.226,56.473,44.916,85.711,44.946,85.694.031.017,48.173-29.22,44.947-85.7C152.121,75.753,131.649,60.5,131.649,60.5Z"/><path class="c" d="M 131.6914672851562 67.81986999511719 C 125.1374359130859 72.23678588867188 110.6246185302734 80.97402954101562 92.54972839355469 85.48556518554688 C 92.28472900390625 127.1465530395508 121.9324340820312 152.0647888183594 131.6465301513672 159.103271484375 C 141.3623962402344 152.0560913085938 171.0156555175781 127.1175155639648 170.7480163574219 85.47637939453125 C 153.1426086425781 81.02729797363281 138.28759765625 72.17105102539062 131.6914672851562 67.81986999511719 M 131.6488342285156 60.49800109863281 C 131.6488342285156 60.49800109863281 152.121337890625 75.75282287597656 176.5953979492188 80.6514892578125 C 179.82080078125 137.1125183105469 131.7028503417969 166.3467712402344 131.6488647460938 166.3467712402344 C 131.6488494873047 166.3467712402344 131.6488342285156 166.3467559814453 131.6488342285156 166.3467559814453 C 131.6488189697266 166.3467559814453 131.6488037109375 166.3467712402344 131.6487884521484 166.3467712402344 C 131.5889282226562 166.3467712402344 83.47737121582031 137.1087799072266 86.70256042480469 80.65299987792969 C 111.1751251220703 75.75282287597656 130.25732421875 61.55583190917969 131.6488342285156 60.49800109863281 Z"/></g><path d="M155.13,29.159a3.776,3.776,0,0,0-3.027-3.486C122.259,19.7,96.779.935,96.528.748a3.771,3.771,0,0,0-4.539.024c-1,.764-24.953,18.779-55.547,24.9a3.777,3.777,0,0,0-3.029,3.486C30.962,72.074,51.1,102.944,68.42,121.283a143.554,143.554,0,0,0,16.574,15.029c2.279,1.752,4.12,3.039,5.262,3.81,2.133,1.442,2.746,1.855,3.923,1.877.049,0,.1,0,.144,0,1.161,0,1.862-.468,3.709-1.706,1-.672,2.621-1.79,4.64-3.317a141.521,141.521,0,0,0,14.9-13.056,134.546,134.546,0,0,0,26.409-37.186A117.415,117.415,0,0,0,155.13,29.159Zm-33.059,78.385a132.268,132.268,0,0,1-27.8,26.182,132.241,132.241,0,0,1-27.8-26.188C48.537,85.044,39.915,59.8,40.82,32.458,66.651,26.624,87.545,13.13,94.292,8.413c6.838,4.71,28.093,18.292,53.432,24.042C148.63,59.8,140.008,85.05,122.072,107.544Z" transform="translate(-33.21 0)"/></g></g></svg>