<svg xmlns="http://www.w3.org/2000/svg" width="91.048" height="108" viewBox="0 0 91.048 108"><g transform="translate(-48 -8)"><path d="M101.935,456H89.742a1.742,1.742,0,1,0,0,3.484h12.194a1.742,1.742,0,1,0,0-3.484Z" transform="translate(-31.29 -350.452)"/><path d="M171.484,456h-1.742a1.742,1.742,0,1,0,0,3.484h1.742a1.742,1.742,0,1,0,0-3.484Z" transform="translate(-93.871 -350.452)"/><path d="M115.064,34.129a23.718,23.718,0,0,0-4.355.4V16.71A8.718,8.718,0,0,0,102,8H56.71A8.718,8.718,0,0,0,48,16.71V107.29A8.718,8.718,0,0,0,56.71,116H102a8.718,8.718,0,0,0,8.71-8.71V81.161s4.988-.007,5.293-.022a23.512,23.512,0,1,0-.939-47.015Zm-23.9-22.645L90.12,16.71H68.59l-1.045-5.226Zm16.061,95.806A5.233,5.233,0,0,1,102,112.516H56.71a5.233,5.233,0,0,1-5.226-5.226V16.71a5.233,5.233,0,0,1,5.226-5.226h7.281l1.463,7.31a1.74,1.74,0,0,0,1.707,1.4H91.548a1.74,1.74,0,0,0,1.707-1.4l1.463-7.31H102a5.233,5.233,0,0,1,5.226,5.226V35.475a23.557,23.557,0,0,0-15.677,22.17,23.266,23.266,0,0,0,5.629,15.27L87.285,77.86a1.742,1.742,0,0,0,.78,3.3h19.161Zm22.266-35.747a19.936,19.936,0,0,1-13.635,6.116c-.263.011-20.413.017-20.413.017l5.393-2.7a1.744,1.744,0,0,0,.42-2.822,20.032,20.032,0,1,1,28.235-.616Z" transform="translate(0)"/><path d="M341.226,208a5.226,5.226,0,1,0,5.226,5.226A5.226,5.226,0,0,0,341.226,208Zm0,6.968a1.742,1.742,0,1,1,1.742-1.742A1.742,1.742,0,0,1,341.226,214.968Z" transform="translate(-225.29 -156.452)"/><path d="M285.226,208a5.226,5.226,0,1,0,5.226,5.226A5.226,5.226,0,0,0,285.226,208Zm0,6.968a1.742,1.742,0,1,1,1.742-1.742A1.742,1.742,0,0,1,285.226,214.968Z" transform="translate(-181.484 -156.452)"/><path d="M397.226,208a5.226,5.226,0,1,0,5.226,5.226A5.226,5.226,0,0,0,397.226,208Zm0,6.968a1.742,1.742,0,1,1,1.742-1.742A1.742,1.742,0,0,1,397.226,214.968Z" transform="translate(-269.097 -156.452)"/></g></svg>