<svg xmlns="http://www.w3.org/2000/svg" width="105.939" height="100.859" viewBox="0 0 105.939 100.859"><defs><style>.a{opacity:0.387;}.b{fill:#fff;}</style></defs><g class="a" transform="translate(0 -11.508)"><g transform="translate(0 11.508)"><g transform="translate(0 0)"><path class="b" d="M105.811,68.024A12.36,12.36,0,0,0,95.344,57.557v-3.21c0-8.856-6.732-16.067-15.008-16.067-8.037,0-14.766,6.992-15.008,15.587h.1l-.1.018v34.8c0,11.123-8.316,20.156-18.539,20.156S28.25,99.791,28.25,88.68V85.666c2.56,0,5.3-1.856,5.3-7.062V74.163c11.332-2.9,19.422-12.628,19.422-23.659V46.822H49.438l-.074-22.98A8.837,8.837,0,0,0,42.1,15.2a5.269,5.269,0,1,0-.12,3.6,5.3,5.3,0,0,1,3.847,5.053l.079,22.969H42.375v3.733A14.04,14.04,0,0,1,32.212,63.728a16.055,16.055,0,0,1-9.711,0A14.033,14.033,0,0,1,12.359,50.555V46.822h-5.3V23.869a5.3,5.3,0,0,1,3.92-5.092,5.322,5.322,0,1,0-.109-3.586,8.828,8.828,0,0,0-7.341,8.678V46.822H0v3.673C0,61.539,8.1,71.272,19.422,74.163V78.6c0,5.207,2.737,7.063,5.3,7.063V88.68c0,13.066,9.9,23.688,22.07,23.688s22.07-10.634,22.07-23.688V53.969c.177-6.7,5.329-12.153,11.477-12.153,6.328,0,11.477,5.622,11.477,12.536v3.2a12.359,12.359,0,1,0,14,10.467ZM37.078,18.572a1.766,1.766,0,1,1,1.766-1.766A1.766,1.766,0,0,1,37.078,18.572ZM15.891,15.041a1.766,1.766,0,1,1-1.766,1.766A1.766,1.766,0,0,1,15.891,15.041ZM3.531,50.495v-.141h5.3v.2a17.543,17.543,0,0,0,12.6,16.532,19.647,19.647,0,0,0,11.861,0A17.547,17.547,0,0,0,45.906,50.555v-.2h3.531v.141c0,9.822-7.571,18.465-18.009,20.555a25.186,25.186,0,0,1-7.449.365,23.065,23.065,0,0,1-2.438-.369C11.1,68.96,3.531,60.317,3.531,50.495Zm21.188,31.64c-1.589,0-1.766-2.472-1.766-3.531V74.857c.141.018.286.025.429.039.177.019.353.034.53.049.835.074,1.677.124,2.527.125h.088c.847,0,1.688-.051,2.518-.125.177-.016.364-.03.546-.049.139-.016.284-.021.424-.039V78.6c0,1.059-.177,3.531-1.766,3.531ZM93.578,78.6a8.828,8.828,0,1,1,8.828-8.828A8.828,8.828,0,0,1,93.578,78.6Z" transform="translate(0 -11.508)"/></g></g><g transform="translate(88.281 64.478)"><g transform="translate(0 0)"><path class="b" d="M405.3,251.515a5.3,5.3,0,1,0,5.3,5.3A5.3,5.3,0,0,0,405.3,251.515Zm0,7.063a1.766,1.766,0,1,1,1.766-1.766A1.766,1.766,0,0,1,405.3,258.578Z" transform="translate(-400 -251.515)"/></g></g></g></svg>