<svg xmlns="http://www.w3.org/2000/svg" width="141.795" height="141.795" viewBox="0 0 141.795 141.795"><defs><style>.a{fill:#497bfa;}</style></defs><path d="M9.453,344.53H122.889a9.453,9.453,0,0,0,9.453-9.453v-7.09a2.363,2.363,0,0,0-2.363-2.363h-4.726V287.812h-4.727v37.812H115.8V287.812h-4.727v37.812H80.908a6.6,6.6,0,0,0-5.935,3.67,1.9,1.9,0,0,1-1.712,1.056H59.639a1.892,1.892,0,0,1-1.708-1.056,6.6,6.6,0,0,0-5.939-3.67H21.269V266.543a2.363,2.363,0,0,1,2.363-2.363H66.171v-4.727H23.632a7.091,7.091,0,0,0-7.09,7.09v59.081H11.816V261.816a7.091,7.091,0,0,1,7.09-7.09H66.171V250H18.906A11.831,11.831,0,0,0,7.09,261.816v63.808H2.363A2.363,2.363,0,0,0,0,327.987v7.09A9.453,9.453,0,0,0,9.453,344.53ZM4.726,330.35H51.991A1.9,1.9,0,0,1,53.7,331.4a6.6,6.6,0,0,0,5.935,3.673H73.261A6.6,6.6,0,0,0,79.2,331.4a1.892,1.892,0,0,1,1.708-1.053h46.707v4.727a4.726,4.726,0,0,1-4.727,4.727H9.453a4.726,4.726,0,0,1-4.726-4.727Zm0,0" transform="translate(0 -202.735)"/><path d="M162.5,452.363v18.906a2.363,2.363,0,0,0,2.363,2.363h66.171a2.363,2.363,0,0,0,2.363-2.363V452.363A2.363,2.363,0,0,0,231.034,450H164.863A2.363,2.363,0,0,0,162.5,452.363Zm4.727,2.363h61.444v14.18H167.227Zm0,0" transform="translate(-131.778 -364.923)"/><path d="M212.5,500h4.727v4.727H212.5Zm0,0" transform="translate(-172.325 -405.47)"/><path d="M262.5,500h4.727v4.727H262.5Zm0,0" transform="translate(-212.872 -405.47)"/><path d="M312.5,500h4.727v4.727H312.5Zm0,0" transform="translate(-253.419 -405.47)"/><path d="M362.5,500h4.727v4.727H362.5Zm0,0" transform="translate(-293.966 -405.47)"/><path class="a" d="M438.808,35.537V28.359a28.359,28.359,0,0,0-56.718,0v7.178A7.929,7.929,0,0,0,375,43.394V72.406a7.955,7.955,0,0,0,7.947,7.945h55a7.955,7.955,0,0,0,7.947-7.945V43.394A7.929,7.929,0,0,0,438.808,35.537Zm-51.991-7.178a23.632,23.632,0,0,1,47.265,0v7.09h-4.727v-7.09a18.906,18.906,0,0,0-37.812,0v7.09h-4.726Zm9.453,7.09v-7.09a14.18,14.18,0,0,1,28.359,0v7.09Zm44.9,36.957a3.222,3.222,0,0,1-3.221,3.218h-55a3.222,3.222,0,0,1-3.221-3.218V43.394a3.222,3.222,0,0,1,3.221-3.218h55a3.222,3.222,0,0,1,3.221,3.218Zm0,0" transform="translate(-304.103)"/><path class="a" d="M532.1,262.5a7.073,7.073,0,0,0-2.363,13.745v5.161h4.726v-5.161A7.073,7.073,0,0,0,532.1,262.5Zm0,9.453a2.363,2.363,0,1,1,2.363-2.363A2.363,2.363,0,0,1,532.1,271.953Zm0,0" transform="translate(-425.752 -212.872)"/></svg>