<svg xmlns="http://www.w3.org/2000/svg" width="108" height="108" viewBox="0 0 108 108"><path d="M119.189,27.356a1.79,1.79,0,0,0-1.331-1.249l-10.98-2.481L104.4,12.646a1.791,1.791,0,0,0-3.014-.871L88.755,24.406A51.1,51.1,0,1,0,106.1,41.755l12.634-12.634a1.793,1.793,0,0,0,.451-1.765Zm-9.323,40.8A47.51,47.51,0,1,1,86.14,27.025l-5.8,5.8A1.777,1.777,0,0,0,80.2,33a39.482,39.482,0,1,0,17.3,17.32,1.766,1.766,0,0,0,.187-.153l5.8-5.8a47.35,47.35,0,0,1,6.381,23.789ZM93.246,50.024A35.795,35.795,0,1,1,80.483,37.248l1.887,8.358-1.81,1.81a27.671,27.671,0,1,0,2.534,2.534l1.81-1.81ZM70.054,68.16A7.733,7.733,0,1,1,66.374,61.6l-5.291,5.291a1.792,1.792,0,1,0,2.534,2.533l5.291-5.291A7.645,7.645,0,0,1,70.054,68.16Zm-1.1-9.136a11.333,11.333,0,1,0,2.533,2.534l9.069-9.069a24.07,24.07,0,1,1-2.533-2.534ZM102.578,40.21l-6.724,6.723-1.008-.227-.039-.009-8.974-2.02L83.572,34.661l18.052-18.055,2.014,8.913a1.793,1.793,0,0,0,1.353,1.353l8.913,2.014Z" transform="translate(-11.261 -11.25)"/></svg>