<svg xmlns="http://www.w3.org/2000/svg" width="251" height="183" viewBox="0 0 251 183"><defs><style>.a{opacity:0.387;}.b,.c{fill:#fff;}.c{font-size:26px;font-family:Avenir-Medium, Avenir;font-weight:500;}</style></defs><g transform="translate(-1131 -3607)"><g class="a" transform="translate(1146.807 3607)"><path class="b" d="M141.383,124.271h-.942L114.721,55.046a7.529,7.529,0,1,0-9.415,0L94.775,83.392a1.477,1.477,0,1,0,2.769,1.029l2.436-6.556,7.753,6.6L92.805,97.174l2.416-6.5a1.477,1.477,0,1,0-2.769-1.029L79.587,124.271h-.942a4.457,4.457,0,0,0-4.451,4.451v4.106a1.477,1.477,0,0,0,1.477,1.477h56.037a1.477,1.477,0,0,0,0-2.954H77.147v-2.629a1.5,1.5,0,0,1,1.5-1.5h62.738a1.5,1.5,0,0,1,1.5,1.5v2.629h-4.295a1.477,1.477,0,0,0,0,2.954h5.772a1.477,1.477,0,0,0,1.477-1.477v-4.106A4.456,4.456,0,0,0,141.383,124.271ZM127.232,97.2,112.287,84.47l7.76-6.606ZM114.75,63.6l-2.97-4.532.821-1.253Zm-4.736-19a4.575,4.575,0,1,1-4.575,4.575A4.58,4.58,0,0,1,110.014,44.6Zm-2.587,13.22.821,1.253L105.277,63.6Zm2.587,3.947,7.95,12.129h-15.9Zm-6.673,15.083h13.343L110.01,82.53Zm6.668,9.56,16.536,14.086H93.461Zm14.009,17.039-14.012,6.671-14.019-6.671ZM90.27,104l16.3,7.757-23.3,11.095Zm-3.119,20.273,22.855-10.881,22.866,10.881Zm26.291-12.517,16.311-7.765,7.008,18.862Z" transform="translate(0 -33.446)"/><path class="b" d="M138.935,48.4a1.477,1.477,0,1,0,2-2.174,10.23,10.23,0,0,1,0-15.068,1.477,1.477,0,1,0-2-2.175,13.184,13.184,0,0,0,0,19.417Z" transform="translate(-48.57 -22.964)"/><path class="b" d="M177.632,66.086a1.477,1.477,0,1,0,1.786-2.352,2.17,2.17,0,0,1,0-3.459,1.477,1.477,0,1,0-1.786-2.352,5.124,5.124,0,0,0,0,8.163Z" transform="translate(-81.443 -46.276)"/><path class="b" d="M100.824,31.051a1.477,1.477,0,1,0,2.036-2.14,18.189,18.189,0,0,1,0-26.364,1.477,1.477,0,0,0-2.035-2.14A20.956,20.956,0,0,0,94.25,15.729a20.956,20.956,0,0,0,6.574,15.322Z" transform="translate(-16.108 0)"/><path class="b" d="M343.794,46.228a1.477,1.477,0,1,0,2,2.174,13.184,13.184,0,0,0,0-19.417,1.477,1.477,0,1,0-2,2.175,10.23,10.23,0,0,1,0,15.068Z" transform="translate(-216.131 -22.965)"/><path class="b" d="M314.868,63.735a1.477,1.477,0,0,0,1.786,2.352,5.124,5.124,0,0,0,0-8.163,1.477,1.477,0,0,0-1.786,2.352,2.17,2.17,0,0,1,0,3.459Z" transform="translate(-192.816 -46.276)"/><path class="b" d="M372.371,2.548a18.189,18.189,0,0,1,0,26.364,1.477,1.477,0,0,0,2.036,2.14,20.956,20.956,0,0,0,6.574-15.322A20.955,20.955,0,0,0,374.407.408a1.477,1.477,0,0,0-2.035,2.14Z" transform="translate(-239.096 -0.001)"/></g><text class="c" transform="translate(1131 3748)"><tspan x="6.524" y="26">Telecommunications</tspan></text></g></svg>