<svg xmlns="http://www.w3.org/2000/svg" width="150.006" height="149.005" viewBox="0 0 150.006 149.005"><defs><style>.a{fill:#497bfa;}</style></defs><g transform="translate(0 -1.709)"><path d="M114.066,109.949a82.056,82.056,0,0,0,31.805-24.24c2.9-3.672,4.135-6.512,4.135-9.5s-1.237-5.825-4.137-9.5a82.05,82.05,0,0,0-31.8-24.237q-2.076-.911-4.214-1.72V19.6h9.958a10.67,10.67,0,1,0,0-5.86H106.922a2.93,2.93,0,0,0-2.93,2.93V38.751a99.288,99.288,0,0,0-26.064-4.265V22.637a10.669,10.669,0,1,0-5.86,0V34.486A99.261,99.261,0,0,0,46,38.753V16.673a2.93,2.93,0,0,0-2.93-2.93H30.2a10.67,10.67,0,1,0,0,5.86h9.95V40.757q-2.131.81-4.207,1.717a82.062,82.062,0,0,0-31.8,24.24C1.237,70.386,0,73.226,0,76.211s1.237,5.826,4.137,9.5a82.056,82.056,0,0,0,31.8,24.237q2.073.91,4.207,1.717V132.82H30.2a10.67,10.67,0,1,0,0,5.86h12.88A2.93,2.93,0,0,0,46,135.75v-22.08a99.262,99.262,0,0,0,26.064,4.267v11.85a10.67,10.67,0,1,0,5.86,0v-11.85a99.29,99.29,0,0,0,26.064-4.265V135.75a2.93,2.93,0,0,0,2.93,2.93H119.81a10.67,10.67,0,1,0,0-5.86h-9.958V111.668q2.134-.811,4.214-1.719Zm16-98.086a4.81,4.81,0,1,1-4.81,4.81A4.816,4.816,0,0,1,130.068,11.862ZM19.938,21.483a4.81,4.81,0,1,1,4.81-4.81A4.816,4.816,0,0,1,19.938,21.483Zm0,119.077a4.81,4.81,0,1,1,4.81-4.81A4.816,4.816,0,0,1,19.938,140.56Zm110.13-9.621a4.81,4.81,0,1,1-4.81,4.81A4.816,4.816,0,0,1,130.068,130.939ZM70.188,12.379A4.81,4.81,0,1,1,75,17.189,4.816,4.816,0,0,1,70.188,12.379ZM8.734,82.078C6.746,79.56,5.86,77.75,5.86,76.211s.887-3.348,2.872-5.863C18.113,58.5,31.412,49.66,46.616,44.737a42.338,42.338,0,0,0,0,62.949C31.413,102.763,18.114,93.925,8.734,82.078Zm71.075,57.966a4.81,4.81,0,1,1-4.81-4.81A4.816,4.816,0,0,1,79.809,140.044ZM103.4,107.68a42.516,42.516,0,0,0,11.58-17.356,2.93,2.93,0,1,0-5.526-1.949,36.826,36.826,0,0,1-25.865,23.348c-2.837.26-5.7.4-8.595.4s-5.764-.141-8.6-.4a36.542,36.542,0,0,1,0-71.021c2.84-.261,5.71-.4,8.6-.4s5.757.141,8.594.4A36.833,36.833,0,0,1,109.45,64.017a2.93,2.93,0,1,0,5.524-1.955A42.553,42.553,0,0,0,103.4,44.741c15.2,4.924,28.494,13.76,37.872,25.6,1.988,2.519,2.875,4.328,2.875,5.867s-.887,3.348-2.872,5.863C131.9,93.919,118.6,102.756,103.4,107.68Z" transform="translate(0 0)"/><path class="a" d="M212.6,183.992h-5.941a20.015,20.015,0,0,0-16.824-16.825v-5.941a2.93,2.93,0,1,0-5.86,0v5.941a20.015,20.015,0,0,0-16.825,16.825h-5.94a2.93,2.93,0,1,0,0,5.86h5.94a20.015,20.015,0,0,0,16.825,16.825v5.941a2.93,2.93,0,1,0,5.86,0v-5.941a20.015,20.015,0,0,0,16.824-16.825H212.6a2.93,2.93,0,0,0,0-5.86Zm-25.695,17.042a14.112,14.112,0,1,1,14.112-14.112A14.128,14.128,0,0,1,186.909,201.033Z" transform="translate(-111.91 -110.71)"/><path d="M383.616,245.943a2.93,2.93,0,0,0-2.93,2.93v.017a2.93,2.93,0,1,0,2.93-2.947Z" transform="translate(-269.153 -172.678)"/></g></svg>